%TF.GenerationSoftware,KiCad,Pcbnew,8.0.7*%
%TF.CreationDate,2024-12-12T10:30:31+01:00*%
%TF.ProjectId,pcb_actionneur_ventouse,7063625f-6163-4746-996f-6e6e6575725f,rev?*%
%TF.SameCoordinates,Original*%
%TF.FileFunction,Soldermask,Top*%
%TF.FilePolarity,Negative*%
%FSLAX46Y46*%
G04 Gerber Fmt 4.6, Leading zero omitted, Abs format (unit mm)*
G04 Created by KiCad (PCBNEW 8.0.7) date 2024-12-12 10:30:31*
%MOMM*%
%LPD*%
G01*
G04 APERTURE LIST*
G04 Aperture macros list*
%AMRoundRect*
0 Rectangle with rounded corners*
0 $1 Rounding radius*
0 $2 $3 $4 $5 $6 $7 $8 $9 X,Y pos of 4 corners*
0 Add a 4 corners polygon primitive as box body*
4,1,4,$2,$3,$4,$5,$6,$7,$8,$9,$2,$3,0*
0 Add four circle primitives for the rounded corners*
1,1,$1+$1,$2,$3*
1,1,$1+$1,$4,$5*
1,1,$1+$1,$6,$7*
1,1,$1+$1,$8,$9*
0 Add four rect primitives between the rounded corners*
20,1,$1+$1,$2,$3,$4,$5,0*
20,1,$1+$1,$4,$5,$6,$7,0*
20,1,$1+$1,$6,$7,$8,$9,0*
20,1,$1+$1,$8,$9,$2,$3,0*%
G04 Aperture macros list end*
%ADD10RoundRect,0.250000X0.625000X-0.400000X0.625000X0.400000X-0.625000X0.400000X-0.625000X-0.400000X0*%
%ADD11R,1.700000X1.700000*%
%ADD12O,1.700000X1.700000*%
%ADD13RoundRect,0.250000X0.250000X0.750000X-0.250000X0.750000X-0.250000X-0.750000X0.250000X-0.750000X0*%
%ADD14RoundRect,0.237500X0.300000X0.237500X-0.300000X0.237500X-0.300000X-0.237500X0.300000X-0.237500X0*%
%ADD15RoundRect,0.150000X0.825000X0.150000X-0.825000X0.150000X-0.825000X-0.150000X0.825000X-0.150000X0*%
%ADD16C,2.900000*%
%ADD17C,5.000000*%
%ADD18RoundRect,0.237500X-0.250000X-0.237500X0.250000X-0.237500X0.250000X0.237500X-0.250000X0.237500X0*%
%ADD19RoundRect,0.237500X-0.237500X0.287500X-0.237500X-0.287500X0.237500X-0.287500X0.237500X0.287500X0*%
%ADD20RoundRect,0.237500X-0.287500X-0.237500X0.287500X-0.237500X0.287500X0.237500X-0.287500X0.237500X0*%
%ADD21RoundRect,0.237500X0.250000X0.237500X-0.250000X0.237500X-0.250000X-0.237500X0.250000X-0.237500X0*%
G04 APERTURE END LIST*
D10*
%TO.C,R6*%
X146500000Y-59050000D03*
X146500000Y-55950000D03*
%TD*%
D11*
%TO.C,J2*%
X155620000Y-45500000D03*
D12*
X153080000Y-45500000D03*
X150540000Y-45500000D03*
X148000000Y-45500000D03*
%TD*%
D13*
%TO.C,J9*%
X149500000Y-59500000D03*
%TD*%
D11*
%TO.C,J10*%
X144000000Y-41500000D03*
%TD*%
D13*
%TO.C,J7*%
X153500000Y-59500000D03*
%TD*%
%TO.C,J6*%
X155500000Y-59500000D03*
%TD*%
%TO.C,J8*%
X151500000Y-59500000D03*
%TD*%
D11*
%TO.C,J1*%
X155620000Y-41500000D03*
D12*
X153080000Y-41500000D03*
X150540000Y-41500000D03*
X148000000Y-41500000D03*
%TD*%
D14*
%TO.C,C1*%
X149862500Y-54095000D03*
X148137500Y-54095000D03*
%TD*%
D15*
%TO.C,U1*%
X150975000Y-52405000D03*
X150975000Y-51135000D03*
X150975000Y-49865000D03*
X150975000Y-48595000D03*
X146025000Y-48595000D03*
X146025000Y-49865000D03*
X146025000Y-51135000D03*
X146025000Y-52405000D03*
%TD*%
D16*
%TO.C,J4*%
X159000000Y-50000000D03*
D17*
X159000000Y-50000000D03*
%TD*%
D16*
%TO.C,J5*%
X141000000Y-50000000D03*
D17*
X141000000Y-50000000D03*
%TD*%
D18*
%TO.C,R3*%
X153087500Y-51000000D03*
X154912500Y-51000000D03*
%TD*%
D19*
%TO.C,D3*%
X158500000Y-43125000D03*
X158500000Y-44875000D03*
%TD*%
D20*
%TO.C,D1*%
X143125000Y-46500000D03*
X144875000Y-46500000D03*
%TD*%
D18*
%TO.C,R2*%
X154912500Y-54000000D03*
X153087500Y-54000000D03*
%TD*%
D12*
%TO.C,J3*%
X140735000Y-55500000D03*
D11*
X143275000Y-55500000D03*
%TD*%
D19*
%TO.C,D2*%
X160500000Y-44625000D03*
X160500000Y-46375000D03*
%TD*%
D21*
%TO.C,R1*%
X144912500Y-44500000D03*
X143087500Y-44500000D03*
%TD*%
M02*
