%TF.GenerationSoftware,KiCad,Pcbnew,8.0.7*%
%TF.CreationDate,2024-12-12T10:30:31+01:00*%
%TF.ProjectId,pcb_actionneur_ventouse,7063625f-6163-4746-996f-6e6e6575725f,rev?*%
%TF.SameCoordinates,Original*%
%TF.FileFunction,Copper,L1,Top*%
%TF.FilePolarity,Positive*%
%FSLAX46Y46*%
G04 Gerber Fmt 4.6, Leading zero omitted, Abs format (unit mm)*
G04 Created by KiCad (PCBNEW 8.0.7) date 2024-12-12 10:30:31*
%MOMM*%
%LPD*%
G01*
G04 APERTURE LIST*
G04 Aperture macros list*
%AMRoundRect*
0 Rectangle with rounded corners*
0 $1 Rounding radius*
0 $2 $3 $4 $5 $6 $7 $8 $9 X,Y pos of 4 corners*
0 Add a 4 corners polygon primitive as box body*
4,1,4,$2,$3,$4,$5,$6,$7,$8,$9,$2,$3,0*
0 Add four circle primitives for the rounded corners*
1,1,$1+$1,$2,$3*
1,1,$1+$1,$4,$5*
1,1,$1+$1,$6,$7*
1,1,$1+$1,$8,$9*
0 Add four rect primitives between the rounded corners*
20,1,$1+$1,$2,$3,$4,$5,0*
20,1,$1+$1,$4,$5,$6,$7,0*
20,1,$1+$1,$6,$7,$8,$9,0*
20,1,$1+$1,$8,$9,$2,$3,0*%
G04 Aperture macros list end*
%TA.AperFunction,SMDPad,CuDef*%
%ADD10RoundRect,0.250000X0.625000X-0.400000X0.625000X0.400000X-0.625000X0.400000X-0.625000X-0.400000X0*%
%TD*%
%TA.AperFunction,ComponentPad*%
%ADD11R,1.700000X1.700000*%
%TD*%
%TA.AperFunction,ComponentPad*%
%ADD12O,1.700000X1.700000*%
%TD*%
%TA.AperFunction,SMDPad,CuDef*%
%ADD13RoundRect,0.250000X0.250000X0.750000X-0.250000X0.750000X-0.250000X-0.750000X0.250000X-0.750000X0*%
%TD*%
%TA.AperFunction,SMDPad,CuDef*%
%ADD14RoundRect,0.237500X0.300000X0.237500X-0.300000X0.237500X-0.300000X-0.237500X0.300000X-0.237500X0*%
%TD*%
%TA.AperFunction,SMDPad,CuDef*%
%ADD15RoundRect,0.150000X0.825000X0.150000X-0.825000X0.150000X-0.825000X-0.150000X0.825000X-0.150000X0*%
%TD*%
%TA.AperFunction,ComponentPad*%
%ADD16C,2.900000*%
%TD*%
%TA.AperFunction,ConnectorPad*%
%ADD17C,5.000000*%
%TD*%
%TA.AperFunction,SMDPad,CuDef*%
%ADD18RoundRect,0.237500X-0.250000X-0.237500X0.250000X-0.237500X0.250000X0.237500X-0.250000X0.237500X0*%
%TD*%
%TA.AperFunction,SMDPad,CuDef*%
%ADD19RoundRect,0.237500X-0.237500X0.287500X-0.237500X-0.287500X0.237500X-0.287500X0.237500X0.287500X0*%
%TD*%
%TA.AperFunction,SMDPad,CuDef*%
%ADD20RoundRect,0.237500X-0.287500X-0.237500X0.287500X-0.237500X0.287500X0.237500X-0.287500X0.237500X0*%
%TD*%
%TA.AperFunction,SMDPad,CuDef*%
%ADD21RoundRect,0.237500X0.250000X0.237500X-0.250000X0.237500X-0.250000X-0.237500X0.250000X-0.237500X0*%
%TD*%
%TA.AperFunction,ViaPad*%
%ADD22C,0.600000*%
%TD*%
%TA.AperFunction,Conductor*%
%ADD23C,0.750000*%
%TD*%
%TA.AperFunction,Conductor*%
%ADD24C,0.200000*%
%TD*%
G04 APERTURE END LIST*
D10*
%TO.P,R6,1*%
%TO.N,+5V*%
X146500000Y-59050000D03*
%TO.P,R6,2*%
%TO.N,/Isense*%
X146500000Y-55950000D03*
%TD*%
D11*
%TO.P,J2,1,Pin_1*%
%TO.N,GND*%
X155620000Y-45500000D03*
D12*
%TO.P,J2,2,Pin_2*%
%TO.N,/Sda*%
X153080000Y-45500000D03*
%TO.P,J2,3,Pin_3*%
%TO.N,/Scl*%
X150540000Y-45500000D03*
%TO.P,J2,4,Pin_4*%
%TO.N,+5V*%
X148000000Y-45500000D03*
%TD*%
D13*
%TO.P,J9,1,Pin_1*%
%TO.N,/Udpi*%
X149500000Y-59500000D03*
%TD*%
D11*
%TO.P,J10,1,Pin_1*%
%TO.N,/Udpi*%
X144000000Y-41500000D03*
%TD*%
D13*
%TO.P,J7,1,Pin_1*%
%TO.N,/VacuumPumpIn*%
X153500000Y-59500000D03*
%TD*%
%TO.P,J6,1,Pin_1*%
%TO.N,/EVin*%
X155500000Y-59500000D03*
%TD*%
%TO.P,J8,1,Pin_1*%
%TO.N,/Isense*%
X151500000Y-59500000D03*
%TD*%
D11*
%TO.P,J1,1,Pin_1*%
%TO.N,GND*%
X155620000Y-41500000D03*
D12*
%TO.P,J1,2,Pin_2*%
%TO.N,/Sda*%
X153080000Y-41500000D03*
%TO.P,J1,3,Pin_3*%
%TO.N,/Scl*%
X150540000Y-41500000D03*
%TO.P,J1,4,Pin_4*%
%TO.N,+5V*%
X148000000Y-41500000D03*
%TD*%
D14*
%TO.P,C1,1*%
%TO.N,+5V*%
X149862500Y-54095000D03*
%TO.P,C1,2*%
%TO.N,GND*%
X148137500Y-54095000D03*
%TD*%
D15*
%TO.P,U1,1,VCC*%
%TO.N,+5V*%
X150975000Y-52405000D03*
%TO.P,U1,2,PA6*%
%TO.N,/VacuumPumpIn*%
X150975000Y-51135000D03*
%TO.P,U1,3,PA7*%
%TO.N,/EVin*%
X150975000Y-49865000D03*
%TO.P,U1,4,PA1*%
%TO.N,/Sda*%
X150975000Y-48595000D03*
%TO.P,U1,5,PA2*%
%TO.N,/Scl*%
X146025000Y-48595000D03*
%TO.P,U1,6,~{RESET}/PA0*%
%TO.N,/Udpi*%
X146025000Y-49865000D03*
%TO.P,U1,7,PA3*%
%TO.N,/Isense*%
X146025000Y-51135000D03*
%TO.P,U1,8,GND*%
%TO.N,GND*%
X146025000Y-52405000D03*
%TD*%
D16*
%TO.P,J4,1,Pin_1*%
%TO.N,/Isense*%
X159000000Y-50000000D03*
D17*
X159000000Y-50000000D03*
%TD*%
D16*
%TO.P,J5,1,Pin_1*%
%TO.N,/VaccumPump-*%
X141000000Y-50000000D03*
D17*
X141000000Y-50000000D03*
%TD*%
D18*
%TO.P,R3,1*%
%TO.N,/EVin*%
X153087500Y-51000000D03*
%TO.P,R3,2*%
%TO.N,Net-(D3-A)*%
X154912500Y-51000000D03*
%TD*%
D19*
%TO.P,D3,1,K*%
%TO.N,GND*%
X158500000Y-43125000D03*
%TO.P,D3,2,A*%
%TO.N,Net-(D3-A)*%
X158500000Y-44875000D03*
%TD*%
D20*
%TO.P,D1,1,K*%
%TO.N,Net-(D1-K)*%
X143125000Y-46500000D03*
%TO.P,D1,2,A*%
%TO.N,+5V*%
X144875000Y-46500000D03*
%TD*%
D18*
%TO.P,R2,2*%
%TO.N,Net-(D2-A)*%
X154912500Y-54000000D03*
%TO.P,R2,1*%
%TO.N,/VacuumPumpIn*%
X153087500Y-54000000D03*
%TD*%
D12*
%TO.P,J3,2,Pin_2*%
%TO.N,/Ev-*%
X140735000Y-55500000D03*
D11*
%TO.P,J3,1,Pin_1*%
%TO.N,+5V*%
X143275000Y-55500000D03*
%TD*%
D19*
%TO.P,D2,1,K*%
%TO.N,GND*%
X160500000Y-44625000D03*
%TO.P,D2,2,A*%
%TO.N,Net-(D2-A)*%
X160500000Y-46375000D03*
%TD*%
D21*
%TO.P,R1,1*%
%TO.N,Net-(D1-K)*%
X144912500Y-44500000D03*
%TO.P,R1,2*%
%TO.N,GND*%
X143087500Y-44500000D03*
%TD*%
D22*
%TO.N,GND*%
X139698881Y-44538556D03*
%TO.N,+5V*%
X150000000Y-55900000D03*
%TO.N,GND*%
X149500000Y-52000000D03*
%TO.N,/VacuumPumpIn*%
X152050000Y-54050000D03*
%TO.N,/EVin*%
X149500000Y-50000000D03*
%TD*%
D23*
%TO.N,/Isense*%
X151500000Y-58000000D02*
X151500000Y-59500000D01*
X146500000Y-56000000D02*
X148000000Y-57500000D01*
X146500000Y-55950000D02*
X146500000Y-56000000D01*
X148000000Y-57500000D02*
X151000000Y-57500000D01*
X151000000Y-57500000D02*
X151500000Y-58000000D01*
D24*
%TO.N,/Udpi*%
X142000000Y-53500000D02*
X145635000Y-49865000D01*
X145635000Y-49865000D02*
X146025000Y-49865000D01*
X149000000Y-61000000D02*
X145108654Y-61000000D01*
X149500000Y-60500000D02*
X149000000Y-61000000D01*
X142000000Y-57891346D02*
X142000000Y-53500000D01*
X149500000Y-59500000D02*
X149500000Y-60500000D01*
X145108654Y-61000000D02*
X142000000Y-57891346D01*
D23*
%TO.N,/Isense*%
X159000000Y-57173654D02*
X159000000Y-50000000D01*
X157500000Y-58673654D02*
X159000000Y-57173654D01*
X157500000Y-60150165D02*
X157500000Y-58673654D01*
X156994583Y-60506927D02*
X157500000Y-60150165D01*
X156410373Y-60873216D02*
X156994583Y-60506927D01*
X156045692Y-61075000D02*
X156410373Y-60873216D01*
X151500000Y-60500000D02*
X152075000Y-61075000D01*
X151500000Y-59500000D02*
X151500000Y-60500000D01*
X152075000Y-61075000D02*
X156045692Y-61075000D01*
D24*
%TO.N,/EVin*%
X154125000Y-55191722D02*
X154125000Y-52037500D01*
X154125000Y-52037500D02*
X153087500Y-51000000D01*
X155500000Y-56500000D02*
X155433278Y-56500000D01*
X155433278Y-56500000D02*
X154125000Y-55191722D01*
X155500000Y-59500000D02*
X155500000Y-56500000D01*
%TO.N,/VacuumPumpIn*%
X153500000Y-55325000D02*
X153500000Y-59500000D01*
X153087500Y-54912500D02*
X153500000Y-55325000D01*
X153087500Y-54500000D02*
X153087500Y-54912500D01*
D23*
%TO.N,+5V*%
X146500000Y-58500000D02*
X143500000Y-55500000D01*
X146500000Y-59050000D02*
X146500000Y-58500000D01*
X143500000Y-55500000D02*
X143500000Y-55225000D01*
D24*
X149862500Y-55762500D02*
X149862500Y-54095000D01*
X150000000Y-55900000D02*
X149862500Y-55762500D01*
%TO.N,/VacuumPumpIn*%
X152100000Y-54000000D02*
X153087500Y-54000000D01*
X152050000Y-54050000D02*
X152100000Y-54000000D01*
X153087500Y-54000000D02*
X153087500Y-54500000D01*
%TO.N,Net-(D2-A)*%
X158625000Y-46375000D02*
X160500000Y-46375000D01*
X156200000Y-48800000D02*
X158625000Y-46375000D01*
X156200000Y-52712500D02*
X156200000Y-48800000D01*
X154912500Y-54000000D02*
X156200000Y-52712500D01*
%TO.N,+5V*%
X149862500Y-53517500D02*
X150975000Y-52405000D01*
X149862500Y-54095000D02*
X149862500Y-53517500D01*
X149820000Y-54095000D02*
X149862500Y-54095000D01*
X149725000Y-54000000D02*
X149820000Y-54095000D01*
%TO.N,GND*%
X149500000Y-52595000D02*
X148000000Y-54095000D01*
X149500000Y-52000000D02*
X149500000Y-52595000D01*
%TO.N,Net-(D3-A)*%
X158500000Y-45934314D02*
X158500000Y-44875000D01*
X154912500Y-51000000D02*
X154912500Y-49521814D01*
X154912500Y-49521814D02*
X158500000Y-45934314D01*
%TO.N,/EVin*%
X152952500Y-49865000D02*
X150975000Y-49865000D01*
X153087500Y-50000000D02*
X152952500Y-49865000D01*
X153087500Y-51000000D02*
X153087500Y-50000000D01*
%TO.N,/VacuumPumpIn*%
X151722500Y-51135000D02*
X150975000Y-51135000D01*
X153087500Y-54500000D02*
X153087500Y-52500000D01*
X153087500Y-52500000D02*
X151722500Y-51135000D01*
%TO.N,GND*%
X143087500Y-44500000D02*
X139737437Y-44500000D01*
X139737437Y-44500000D02*
X139698881Y-44538556D01*
%TO.N,Net-(D1-K)*%
X143125000Y-46287500D02*
X144912500Y-44500000D01*
X143125000Y-46500000D02*
X143125000Y-46287500D01*
%TO.N,/Udpi*%
X146000000Y-45000000D02*
X146000000Y-43500000D01*
X144358278Y-45725000D02*
X145275000Y-45725000D01*
X144050000Y-48864999D02*
X144050000Y-46033278D01*
X146000000Y-43500000D02*
X144000000Y-41500000D01*
X145050001Y-49865000D02*
X144050000Y-48864999D01*
X144050000Y-46033278D02*
X144358278Y-45725000D01*
X145275000Y-45725000D02*
X146000000Y-45000000D01*
X146025000Y-49865000D02*
X145050001Y-49865000D01*
%TO.N,+5V*%
X147000000Y-46500000D02*
X144875000Y-46500000D01*
X148000000Y-45500000D02*
X147000000Y-46500000D01*
%TO.N,GND*%
X148000000Y-53000000D02*
X148000000Y-54095000D01*
X147405000Y-52405000D02*
X148000000Y-53000000D01*
X146025000Y-52405000D02*
X147405000Y-52405000D01*
%TO.N,/Scl*%
X150540000Y-45500000D02*
X150540000Y-41500000D01*
%TO.N,/VacuumPumpIn*%
X151886238Y-51135000D02*
X151475000Y-51135000D01*
%TO.N,GND*%
X160500000Y-44625000D02*
X160000000Y-44625000D01*
X160000000Y-44625000D02*
X158500000Y-43125000D01*
X158500000Y-43125000D02*
X157245000Y-43125000D01*
X157245000Y-43125000D02*
X155620000Y-41500000D01*
%TO.N,/Sda*%
X150975000Y-48595000D02*
X153080000Y-46490000D01*
X153080000Y-46490000D02*
X153080000Y-45500000D01*
%TO.N,/Scl*%
X147445000Y-48595000D02*
X146025000Y-48595000D01*
X150540000Y-45500000D02*
X147445000Y-48595000D01*
%TO.N,GND*%
X155620000Y-45500000D02*
X155620000Y-41500000D01*
%TO.N,+5V*%
X148000000Y-45500000D02*
X148000000Y-41500000D01*
%TO.N,/Isense*%
X145050001Y-51135000D02*
X146025000Y-51135000D01*
X144600000Y-51585001D02*
X145050001Y-51135000D01*
X144600000Y-54000000D02*
X144600000Y-51585001D01*
%TO.N,GND*%
X148500000Y-54500000D02*
X148120000Y-54500000D01*
%TO.N,/Scl*%
X150540000Y-41680000D02*
X150720000Y-41500000D01*
%TO.N,/Sda*%
X153260000Y-45320000D02*
X153260000Y-41500000D01*
%TO.N,/Isense*%
X146500000Y-55900000D02*
X144600000Y-54000000D01*
X146500000Y-56500000D02*
X146500000Y-55900000D01*
%TO.N,/VacuumPumpIn*%
X150975000Y-51135000D02*
X151040000Y-51200000D01*
%TO.N,/EVin*%
X149635000Y-49865000D02*
X149500000Y-50000000D01*
X151475000Y-49865000D02*
X149635000Y-49865000D01*
%TO.N,GND*%
X155500000Y-41800000D02*
X155800000Y-41500000D01*
D23*
%TO.N,/Isense*%
X159062500Y-50062500D02*
X159000000Y-50000000D01*
D24*
X161396821Y-50254951D02*
X161394984Y-50000000D01*
X161394984Y-50000000D02*
X161392634Y-49673735D01*
X158475000Y-50475000D02*
X158000000Y-50000000D01*
%TD*%
%TA.AperFunction,Conductor*%
%TO.N,GND*%
G36*
X150361600Y-37005623D02*
G01*
X151070102Y-37044713D01*
X151076887Y-37045276D01*
X151782143Y-37123333D01*
X151788863Y-37124264D01*
X152488794Y-37241062D01*
X152495456Y-37242363D01*
X153187875Y-37397538D01*
X153194467Y-37399208D01*
X153877263Y-37592284D01*
X153883769Y-37594319D01*
X154554883Y-37824713D01*
X154561277Y-37827107D01*
X155218680Y-38094121D01*
X155224923Y-38096860D01*
X155866609Y-38399678D01*
X155872700Y-38402760D01*
X156496755Y-38740482D01*
X156502672Y-38743899D01*
X157107144Y-39115466D01*
X157112865Y-39119204D01*
X157695942Y-39523502D01*
X157701448Y-39527548D01*
X158261401Y-39963375D01*
X158266670Y-39967715D01*
X158801749Y-40433716D01*
X158806755Y-40438324D01*
X158975182Y-40602172D01*
X159315362Y-40933105D01*
X159320127Y-40938003D01*
X159800691Y-41460034D01*
X159805179Y-41465187D01*
X160256263Y-42012909D01*
X160260460Y-42018302D01*
X160680676Y-42590026D01*
X160684570Y-42595641D01*
X160688819Y-42602144D01*
X161072676Y-43189683D01*
X161076228Y-43195462D01*
X161206410Y-43420943D01*
X161265004Y-43522431D01*
X161281477Y-43590331D01*
X161258624Y-43656358D01*
X161203703Y-43699549D01*
X161134150Y-43706190D01*
X161092521Y-43689970D01*
X161051309Y-43664550D01*
X161051300Y-43664546D01*
X160887652Y-43610319D01*
X160786654Y-43600000D01*
X160750000Y-43600000D01*
X160750000Y-44375000D01*
X161474999Y-44375000D01*
X161492092Y-44357906D01*
X161494684Y-44349081D01*
X161547488Y-44303326D01*
X161616646Y-44293382D01*
X161680202Y-44322407D01*
X161709639Y-44360131D01*
X161754650Y-44449077D01*
X161757566Y-44455256D01*
X162042589Y-45105042D01*
X162045160Y-45111373D01*
X162293951Y-45775864D01*
X162296170Y-45782327D01*
X162494424Y-46416181D01*
X162507980Y-46459520D01*
X162509840Y-46466096D01*
X162684027Y-47153947D01*
X162685521Y-47160615D01*
X162821547Y-47856993D01*
X162822672Y-47863733D01*
X162920134Y-48566575D01*
X162920885Y-48573367D01*
X162979476Y-49280470D01*
X162979853Y-49287293D01*
X162999405Y-49996583D01*
X162999405Y-50003417D01*
X162979853Y-50712706D01*
X162979476Y-50719529D01*
X162920885Y-51426632D01*
X162920134Y-51433424D01*
X162822672Y-52136266D01*
X162821547Y-52143006D01*
X162685521Y-52839384D01*
X162684027Y-52846052D01*
X162509840Y-53533903D01*
X162507980Y-53540479D01*
X162296170Y-54217672D01*
X162293951Y-54224135D01*
X162045160Y-54888626D01*
X162042589Y-54894957D01*
X161757566Y-55544743D01*
X161754650Y-55550923D01*
X161434258Y-56184035D01*
X161431005Y-56190045D01*
X161076236Y-56804524D01*
X161072666Y-56810332D01*
X161022696Y-56886818D01*
X160684570Y-57404358D01*
X160680676Y-57409973D01*
X160260460Y-57981697D01*
X160256263Y-57987090D01*
X159805179Y-58534812D01*
X159800691Y-58539965D01*
X159320127Y-59061996D01*
X159315362Y-59066894D01*
X158806766Y-59561665D01*
X158801738Y-59566293D01*
X158580937Y-59758588D01*
X158517454Y-59787772D01*
X158448271Y-59778002D01*
X158395353Y-59732379D01*
X158375500Y-59665389D01*
X158375500Y-59087660D01*
X158395185Y-59020621D01*
X158411819Y-58999979D01*
X159680042Y-57731756D01*
X159680045Y-57731753D01*
X159775858Y-57588359D01*
X159841855Y-57429028D01*
X159875500Y-57259883D01*
X159875500Y-57087425D01*
X159875500Y-52961234D01*
X159895185Y-52894195D01*
X159947989Y-52848440D01*
X159957070Y-52844719D01*
X160190451Y-52759777D01*
X160502793Y-52602913D01*
X160794811Y-52410849D01*
X161062558Y-52186183D01*
X161302412Y-51931953D01*
X161511130Y-51651596D01*
X161685889Y-51348904D01*
X161824326Y-51027971D01*
X161924569Y-50693136D01*
X161968419Y-50444442D01*
X161970531Y-50434747D01*
X161997875Y-50329680D01*
X161996638Y-50158136D01*
X161996845Y-50150038D01*
X161998737Y-50117569D01*
X162005585Y-50000000D01*
X161994259Y-49805560D01*
X161994053Y-49799254D01*
X161992549Y-49590355D01*
X161973009Y-49519478D01*
X161948367Y-49430091D01*
X161948384Y-49430086D01*
X161943202Y-49412542D01*
X161924571Y-49306875D01*
X161924569Y-49306865D01*
X161924569Y-49306864D01*
X161824326Y-48972029D01*
X161685889Y-48651096D01*
X161511130Y-48348404D01*
X161511129Y-48348402D01*
X161302415Y-48068050D01*
X161302410Y-48068044D01*
X161169264Y-47926919D01*
X161062558Y-47813817D01*
X160920347Y-47694488D01*
X160818194Y-47608771D01*
X160779492Y-47550600D01*
X160778384Y-47480739D01*
X160815221Y-47421369D01*
X160878308Y-47391340D01*
X160885281Y-47390426D01*
X160887753Y-47390174D01*
X161051516Y-47335908D01*
X161198350Y-47245340D01*
X161320340Y-47123350D01*
X161410908Y-46976516D01*
X161465174Y-46812753D01*
X161475500Y-46711677D01*
X161475499Y-46038324D01*
X161468103Y-45965925D01*
X161465174Y-45937247D01*
X161452666Y-45899500D01*
X161410908Y-45773484D01*
X161320340Y-45626650D01*
X161281017Y-45587327D01*
X161247532Y-45526004D01*
X161252516Y-45456312D01*
X161281018Y-45411964D01*
X161319945Y-45373037D01*
X161319947Y-45373034D01*
X161410448Y-45226311D01*
X161410453Y-45226300D01*
X161464680Y-45062652D01*
X161474999Y-44961654D01*
X161475000Y-44961641D01*
X161475000Y-44875000D01*
X160624000Y-44875000D01*
X160556961Y-44855315D01*
X160511206Y-44802511D01*
X160500000Y-44751000D01*
X160500000Y-44625000D01*
X160374000Y-44625000D01*
X160306961Y-44605315D01*
X160261206Y-44552511D01*
X160250000Y-44501000D01*
X160250000Y-43600000D01*
X160213361Y-43600000D01*
X160213343Y-43600001D01*
X160112347Y-43610319D01*
X159948699Y-43664546D01*
X159948688Y-43664551D01*
X159801965Y-43755052D01*
X159801961Y-43755055D01*
X159680055Y-43876961D01*
X159680052Y-43876965D01*
X159589551Y-44023688D01*
X159589546Y-44023699D01*
X159556916Y-44122171D01*
X159517143Y-44179616D01*
X159452627Y-44206439D01*
X159383851Y-44194124D01*
X159333671Y-44148263D01*
X159320340Y-44126650D01*
X159281017Y-44087327D01*
X159247532Y-44026004D01*
X159252516Y-43956312D01*
X159281018Y-43911964D01*
X159319945Y-43873037D01*
X159319947Y-43873034D01*
X159410448Y-43726311D01*
X159410453Y-43726300D01*
X159464680Y-43562652D01*
X159474999Y-43461654D01*
X159475000Y-43461641D01*
X159475000Y-43375000D01*
X157525001Y-43375000D01*
X157525001Y-43461654D01*
X157535319Y-43562652D01*
X157589546Y-43726300D01*
X157589551Y-43726311D01*
X157680052Y-43873034D01*
X157680055Y-43873038D01*
X157718982Y-43911965D01*
X157752467Y-43973288D01*
X157747483Y-44042980D01*
X157718983Y-44087326D01*
X157679661Y-44126648D01*
X157589093Y-44273481D01*
X157589091Y-44273486D01*
X157582688Y-44292809D01*
X157534826Y-44437247D01*
X157534826Y-44437248D01*
X157534825Y-44437248D01*
X157524500Y-44538315D01*
X157524500Y-45211669D01*
X157524501Y-45211687D01*
X157534825Y-45312752D01*
X157553370Y-45368716D01*
X157579018Y-45446116D01*
X157589092Y-45476515D01*
X157589093Y-45476518D01*
X157601765Y-45497063D01*
X157658529Y-45589092D01*
X157679661Y-45623351D01*
X157733013Y-45676704D01*
X157766497Y-45738027D01*
X157761512Y-45807719D01*
X157733012Y-45852065D01*
X157181681Y-46403397D01*
X157120358Y-46436882D01*
X157050667Y-46431898D01*
X156994733Y-46390027D01*
X156970316Y-46324562D01*
X156970000Y-46315716D01*
X156970000Y-45750000D01*
X156053012Y-45750000D01*
X156085925Y-45692993D01*
X156120000Y-45565826D01*
X156120000Y-45434174D01*
X156085925Y-45307007D01*
X156053012Y-45250000D01*
X156970000Y-45250000D01*
X156970000Y-44602172D01*
X156969999Y-44602155D01*
X156963598Y-44542627D01*
X156963596Y-44542620D01*
X156913354Y-44407913D01*
X156913350Y-44407906D01*
X156827190Y-44292812D01*
X156827187Y-44292809D01*
X156712093Y-44206649D01*
X156712086Y-44206645D01*
X156577379Y-44156403D01*
X156577372Y-44156401D01*
X156517844Y-44150000D01*
X155870000Y-44150000D01*
X155870000Y-45066988D01*
X155812993Y-45034075D01*
X155685826Y-45000000D01*
X155554174Y-45000000D01*
X155427007Y-45034075D01*
X155370000Y-45066988D01*
X155370000Y-44150000D01*
X154722155Y-44150000D01*
X154662627Y-44156401D01*
X154662620Y-44156403D01*
X154527913Y-44206645D01*
X154527906Y-44206649D01*
X154412812Y-44292809D01*
X154412809Y-44292812D01*
X154326649Y-44407906D01*
X154326645Y-44407913D01*
X154277578Y-44539470D01*
X154235707Y-44595404D01*
X154170242Y-44619821D01*
X154101969Y-44604969D01*
X154073715Y-44583819D01*
X154028211Y-44538315D01*
X153951401Y-44461505D01*
X153937998Y-44452120D01*
X153913375Y-44434878D01*
X153869751Y-44380300D01*
X153860500Y-44333304D01*
X153860500Y-42666694D01*
X153880185Y-42599655D01*
X153913375Y-42565120D01*
X153951401Y-42538495D01*
X154073717Y-42416178D01*
X154135036Y-42382696D01*
X154204728Y-42387680D01*
X154260662Y-42429551D01*
X154277577Y-42460528D01*
X154326646Y-42592088D01*
X154326649Y-42592093D01*
X154412809Y-42707187D01*
X154412812Y-42707190D01*
X154527906Y-42793350D01*
X154527913Y-42793354D01*
X154662620Y-42843596D01*
X154662627Y-42843598D01*
X154722155Y-42849999D01*
X154722172Y-42850000D01*
X155370000Y-42850000D01*
X155370000Y-41933012D01*
X155427007Y-41965925D01*
X155554174Y-42000000D01*
X155685826Y-42000000D01*
X155812993Y-41965925D01*
X155870000Y-41933012D01*
X155870000Y-42850000D01*
X156517828Y-42850000D01*
X156517844Y-42849999D01*
X156577372Y-42843598D01*
X156577379Y-42843596D01*
X156712086Y-42793354D01*
X156712093Y-42793350D01*
X156718779Y-42788345D01*
X157525000Y-42788345D01*
X157525000Y-42875000D01*
X158250000Y-42875000D01*
X158750000Y-42875000D01*
X159474999Y-42875000D01*
X159474999Y-42788360D01*
X159474998Y-42788345D01*
X159464680Y-42687347D01*
X159410453Y-42523699D01*
X159410448Y-42523688D01*
X159319947Y-42376965D01*
X159319944Y-42376961D01*
X159198038Y-42255055D01*
X159198034Y-42255052D01*
X159051311Y-42164551D01*
X159051300Y-42164546D01*
X158887652Y-42110319D01*
X158786654Y-42100000D01*
X158750000Y-42100000D01*
X158750000Y-42875000D01*
X158250000Y-42875000D01*
X158250000Y-42100000D01*
X158213361Y-42100000D01*
X158213343Y-42100001D01*
X158112347Y-42110319D01*
X157948699Y-42164546D01*
X157948688Y-42164551D01*
X157801965Y-42255052D01*
X157801961Y-42255055D01*
X157680055Y-42376961D01*
X157680052Y-42376965D01*
X157589551Y-42523688D01*
X157589546Y-42523699D01*
X157535319Y-42687347D01*
X157525000Y-42788345D01*
X156718779Y-42788345D01*
X156827187Y-42707190D01*
X156827190Y-42707187D01*
X156913350Y-42592093D01*
X156913354Y-42592086D01*
X156963596Y-42457379D01*
X156963598Y-42457372D01*
X156969999Y-42397844D01*
X156970000Y-42397827D01*
X156970000Y-41750000D01*
X156053012Y-41750000D01*
X156085925Y-41692993D01*
X156120000Y-41565826D01*
X156120000Y-41434174D01*
X156085925Y-41307007D01*
X156053012Y-41250000D01*
X156970000Y-41250000D01*
X156970000Y-40602172D01*
X156969999Y-40602155D01*
X156963598Y-40542627D01*
X156963596Y-40542620D01*
X156913354Y-40407913D01*
X156913350Y-40407906D01*
X156827190Y-40292812D01*
X156827187Y-40292809D01*
X156712093Y-40206649D01*
X156712086Y-40206645D01*
X156577379Y-40156403D01*
X156577372Y-40156401D01*
X156517844Y-40150000D01*
X155870000Y-40150000D01*
X155870000Y-41066988D01*
X155812993Y-41034075D01*
X155685826Y-41000000D01*
X155554174Y-41000000D01*
X155427007Y-41034075D01*
X155370000Y-41066988D01*
X155370000Y-40150000D01*
X154722155Y-40150000D01*
X154662627Y-40156401D01*
X154662620Y-40156403D01*
X154527913Y-40206645D01*
X154527906Y-40206649D01*
X154412812Y-40292809D01*
X154412809Y-40292812D01*
X154326649Y-40407906D01*
X154326645Y-40407913D01*
X154277578Y-40539470D01*
X154235707Y-40595404D01*
X154170242Y-40619821D01*
X154101969Y-40604969D01*
X154073715Y-40583819D01*
X154029366Y-40539470D01*
X153951401Y-40461505D01*
X153951397Y-40461502D01*
X153951396Y-40461501D01*
X153757834Y-40325967D01*
X153757830Y-40325965D01*
X153686727Y-40292809D01*
X153543663Y-40226097D01*
X153543659Y-40226096D01*
X153543655Y-40226094D01*
X153315413Y-40164938D01*
X153315403Y-40164936D01*
X153080001Y-40144341D01*
X153079999Y-40144341D01*
X152844596Y-40164936D01*
X152844586Y-40164938D01*
X152616344Y-40226094D01*
X152616335Y-40226098D01*
X152402171Y-40325964D01*
X152402169Y-40325965D01*
X152208597Y-40461505D01*
X152041505Y-40628597D01*
X151911575Y-40814158D01*
X151856998Y-40857783D01*
X151787500Y-40864977D01*
X151725145Y-40833454D01*
X151708425Y-40814158D01*
X151578494Y-40628597D01*
X151411402Y-40461506D01*
X151411395Y-40461501D01*
X151217834Y-40325967D01*
X151217830Y-40325965D01*
X151146727Y-40292809D01*
X151003663Y-40226097D01*
X151003659Y-40226096D01*
X151003655Y-40226094D01*
X150775413Y-40164938D01*
X150775403Y-40164936D01*
X150540001Y-40144341D01*
X150539999Y-40144341D01*
X150304596Y-40164936D01*
X150304586Y-40164938D01*
X150076344Y-40226094D01*
X150076335Y-40226098D01*
X149862171Y-40325964D01*
X149862169Y-40325965D01*
X149668597Y-40461505D01*
X149501505Y-40628597D01*
X149371575Y-40814158D01*
X149316998Y-40857783D01*
X149247500Y-40864977D01*
X149185145Y-40833454D01*
X149168425Y-40814158D01*
X149038494Y-40628597D01*
X148871402Y-40461506D01*
X148871395Y-40461501D01*
X148677834Y-40325967D01*
X148677830Y-40325965D01*
X148606727Y-40292809D01*
X148463663Y-40226097D01*
X148463659Y-40226096D01*
X148463655Y-40226094D01*
X148235413Y-40164938D01*
X148235403Y-40164936D01*
X148000001Y-40144341D01*
X147999999Y-40144341D01*
X147764596Y-40164936D01*
X147764586Y-40164938D01*
X147536344Y-40226094D01*
X147536335Y-40226098D01*
X147322171Y-40325964D01*
X147322169Y-40325965D01*
X147128597Y-40461505D01*
X146961505Y-40628597D01*
X146825965Y-40822169D01*
X146825964Y-40822171D01*
X146726098Y-41036335D01*
X146726094Y-41036344D01*
X146664938Y-41264586D01*
X146664936Y-41264596D01*
X146644341Y-41499999D01*
X146644341Y-41500000D01*
X146664936Y-41735403D01*
X146664938Y-41735413D01*
X146726094Y-41963655D01*
X146726096Y-41963659D01*
X146726097Y-41963663D01*
X146743631Y-42001264D01*
X146825965Y-42177830D01*
X146825967Y-42177834D01*
X146881946Y-42257779D01*
X146961505Y-42371401D01*
X147128599Y-42538495D01*
X147219499Y-42602144D01*
X147322165Y-42674032D01*
X147322167Y-42674033D01*
X147322170Y-42674035D01*
X147327898Y-42676706D01*
X147380339Y-42722872D01*
X147399500Y-42789090D01*
X147399500Y-44210908D01*
X147379815Y-44277947D01*
X147327914Y-44323286D01*
X147322173Y-44325963D01*
X147322169Y-44325965D01*
X147128597Y-44461505D01*
X146961505Y-44628597D01*
X146826075Y-44822013D01*
X146771498Y-44865638D01*
X146702000Y-44872832D01*
X146639645Y-44841309D01*
X146604231Y-44781079D01*
X146600500Y-44750890D01*
X146600500Y-43420945D01*
X146600500Y-43420943D01*
X146563802Y-43283983D01*
X146563802Y-43283982D01*
X146559577Y-43268215D01*
X146515871Y-43192514D01*
X146515870Y-43192513D01*
X146480521Y-43131286D01*
X146480520Y-43131284D01*
X146368716Y-43019480D01*
X146368715Y-43019479D01*
X146364385Y-43015149D01*
X146364374Y-43015139D01*
X145386818Y-42037583D01*
X145353333Y-41976260D01*
X145350499Y-41949902D01*
X145350499Y-40602129D01*
X145350498Y-40602123D01*
X145350497Y-40602116D01*
X145344091Y-40542517D01*
X145305233Y-40438334D01*
X145293797Y-40407671D01*
X145293793Y-40407664D01*
X145207547Y-40292455D01*
X145207544Y-40292452D01*
X145092335Y-40206206D01*
X145092328Y-40206202D01*
X144957482Y-40155908D01*
X144957483Y-40155908D01*
X144897883Y-40149501D01*
X144897881Y-40149500D01*
X144897873Y-40149500D01*
X144897864Y-40149500D01*
X143102129Y-40149500D01*
X143102123Y-40149501D01*
X143042516Y-40155908D01*
X142907671Y-40206202D01*
X142907664Y-40206206D01*
X142792455Y-40292452D01*
X142792452Y-40292455D01*
X142706206Y-40407664D01*
X142706202Y-40407671D01*
X142655908Y-40542517D01*
X142651468Y-40583819D01*
X142649501Y-40602123D01*
X142649500Y-40602135D01*
X142649500Y-42397870D01*
X142649501Y-42397876D01*
X142655908Y-42457483D01*
X142706202Y-42592328D01*
X142706206Y-42592335D01*
X142792452Y-42707544D01*
X142792455Y-42707547D01*
X142907664Y-42793793D01*
X142907671Y-42793797D01*
X143042517Y-42844091D01*
X143042516Y-42844091D01*
X143049444Y-42844835D01*
X143102127Y-42850500D01*
X144449902Y-42850499D01*
X144516941Y-42870184D01*
X144537583Y-42886818D01*
X144963584Y-43312819D01*
X144997069Y-43374142D01*
X144992085Y-43443834D01*
X144950213Y-43499767D01*
X144884749Y-43524184D01*
X144875903Y-43524500D01*
X144613331Y-43524500D01*
X144613312Y-43524501D01*
X144512247Y-43534825D01*
X144348484Y-43589092D01*
X144348481Y-43589093D01*
X144201651Y-43679659D01*
X144087327Y-43793983D01*
X144026004Y-43827467D01*
X143956312Y-43822483D01*
X143911965Y-43793982D01*
X143798038Y-43680055D01*
X143798034Y-43680052D01*
X143651311Y-43589551D01*
X143651300Y-43589546D01*
X143487652Y-43535319D01*
X143386654Y-43525000D01*
X143337500Y-43525000D01*
X143337500Y-44376000D01*
X143317815Y-44443039D01*
X143265011Y-44488794D01*
X143213500Y-44500000D01*
X143087500Y-44500000D01*
X143087500Y-44626000D01*
X143067815Y-44693039D01*
X143015011Y-44738794D01*
X142963500Y-44750000D01*
X142100001Y-44750000D01*
X142100001Y-44786654D01*
X142110319Y-44887652D01*
X142164546Y-45051300D01*
X142164551Y-45051311D01*
X142255052Y-45198034D01*
X142255055Y-45198038D01*
X142376961Y-45319944D01*
X142376965Y-45319947D01*
X142497295Y-45394168D01*
X142544020Y-45446116D01*
X142555241Y-45515078D01*
X142527398Y-45579160D01*
X142497295Y-45605244D01*
X142376653Y-45679657D01*
X142376649Y-45679660D01*
X142254661Y-45801648D01*
X142164093Y-45948481D01*
X142164091Y-45948486D01*
X142156289Y-45972032D01*
X142109826Y-46112247D01*
X142109826Y-46112248D01*
X142109825Y-46112248D01*
X142099500Y-46213315D01*
X142099500Y-46786669D01*
X142099501Y-46786687D01*
X142109825Y-46887752D01*
X142109826Y-46887755D01*
X142151020Y-47012068D01*
X142153422Y-47081896D01*
X142117690Y-47141938D01*
X142055170Y-47173131D01*
X141990904Y-47167594D01*
X141862012Y-47120681D01*
X141862009Y-47120680D01*
X141521915Y-47040077D01*
X141478519Y-47035004D01*
X141174759Y-46999500D01*
X140825241Y-46999500D01*
X140521480Y-47035004D01*
X140478085Y-47040077D01*
X140478083Y-47040077D01*
X140137990Y-47120680D01*
X140137987Y-47120681D01*
X139809547Y-47240223D01*
X139809541Y-47240226D01*
X139497203Y-47397088D01*
X139205194Y-47589146D01*
X139205186Y-47589152D01*
X138937442Y-47813817D01*
X138937440Y-47813819D01*
X138697589Y-48068044D01*
X138697584Y-48068050D01*
X138488870Y-48348402D01*
X138314113Y-48651091D01*
X138314107Y-48651104D01*
X138175674Y-48972027D01*
X138075430Y-49306865D01*
X138075428Y-49306872D01*
X138014739Y-49651061D01*
X138014738Y-49651072D01*
X137994415Y-49999996D01*
X137994415Y-50000003D01*
X138014738Y-50348927D01*
X138014739Y-50348938D01*
X138075428Y-50693127D01*
X138075430Y-50693134D01*
X138175674Y-51027972D01*
X138314107Y-51348895D01*
X138314113Y-51348908D01*
X138488870Y-51651597D01*
X138697584Y-51931949D01*
X138697589Y-51931955D01*
X138800500Y-52041033D01*
X138937442Y-52186183D01*
X139113903Y-52334251D01*
X139205186Y-52410847D01*
X139205194Y-52410853D01*
X139497203Y-52602911D01*
X139542838Y-52625830D01*
X139809549Y-52759777D01*
X140137989Y-52879319D01*
X140478086Y-52959923D01*
X140825241Y-53000500D01*
X140825248Y-53000500D01*
X141174751Y-53000500D01*
X141174759Y-53000500D01*
X141380168Y-52976490D01*
X141449034Y-52988259D01*
X141500610Y-53035394D01*
X141518516Y-53102930D01*
X141501949Y-53161648D01*
X141488995Y-53184087D01*
X141488992Y-53184092D01*
X141440423Y-53268214D01*
X141434858Y-53288982D01*
X141399499Y-53420943D01*
X141399499Y-53420945D01*
X141399499Y-53589046D01*
X141399500Y-53589059D01*
X141399500Y-54125107D01*
X141379815Y-54192146D01*
X141327011Y-54237901D01*
X141257853Y-54247845D01*
X141223098Y-54237491D01*
X141205422Y-54229249D01*
X141198663Y-54226097D01*
X141198660Y-54226096D01*
X141198655Y-54226094D01*
X140970413Y-54164938D01*
X140970403Y-54164936D01*
X140735001Y-54144341D01*
X140734999Y-54144341D01*
X140499596Y-54164936D01*
X140499586Y-54164938D01*
X140271344Y-54226094D01*
X140271335Y-54226098D01*
X140057171Y-54325964D01*
X140057169Y-54325965D01*
X139863597Y-54461505D01*
X139696505Y-54628597D01*
X139560965Y-54822169D01*
X139560964Y-54822171D01*
X139461098Y-55036335D01*
X139461094Y-55036344D01*
X139399938Y-55264586D01*
X139399936Y-55264596D01*
X139379341Y-55499999D01*
X139379341Y-55500000D01*
X139399936Y-55735403D01*
X139399938Y-55735413D01*
X139461094Y-55963655D01*
X139461096Y-55963659D01*
X139461097Y-55963663D01*
X139514996Y-56079249D01*
X139560965Y-56177830D01*
X139560967Y-56177834D01*
X139611164Y-56249522D01*
X139696505Y-56371401D01*
X139863599Y-56538495D01*
X139882902Y-56552011D01*
X140057165Y-56674032D01*
X140057167Y-56674033D01*
X140057170Y-56674035D01*
X140271337Y-56773903D01*
X140271343Y-56773904D01*
X140271344Y-56773905D01*
X140296088Y-56780535D01*
X140499592Y-56835063D01*
X140687918Y-56851539D01*
X140734999Y-56855659D01*
X140735000Y-56855659D01*
X140735001Y-56855659D01*
X140774234Y-56852226D01*
X140970408Y-56835063D01*
X141198663Y-56773903D01*
X141223096Y-56762509D01*
X141292169Y-56752017D01*
X141355954Y-56780535D01*
X141394195Y-56839010D01*
X141399500Y-56874891D01*
X141399500Y-57804676D01*
X141399499Y-57804694D01*
X141399499Y-57970400D01*
X141399498Y-57970400D01*
X141399499Y-57970403D01*
X141440423Y-58123131D01*
X141460144Y-58157288D01*
X141518839Y-58258952D01*
X141519479Y-58260060D01*
X141519481Y-58260063D01*
X141638349Y-58378931D01*
X141638354Y-58378935D01*
X144739938Y-61480520D01*
X144739940Y-61480521D01*
X144739944Y-61480524D01*
X144876863Y-61559573D01*
X144876870Y-61559577D01*
X145029597Y-61600501D01*
X145029599Y-61600501D01*
X145195308Y-61600501D01*
X145195324Y-61600500D01*
X148913331Y-61600500D01*
X148913347Y-61600501D01*
X148920943Y-61600501D01*
X149079054Y-61600501D01*
X149079057Y-61600501D01*
X149231785Y-61559577D01*
X149281904Y-61530639D01*
X149368716Y-61480520D01*
X149480520Y-61368716D01*
X149480521Y-61368714D01*
X149823087Y-61026146D01*
X149884408Y-60992663D01*
X149898156Y-60990472D01*
X149902797Y-60989999D01*
X150069334Y-60934814D01*
X150218656Y-60842712D01*
X150342712Y-60718656D01*
X150394462Y-60634754D01*
X150446407Y-60588032D01*
X150515369Y-60576809D01*
X150579452Y-60604652D01*
X150605537Y-60634755D01*
X150636049Y-60684222D01*
X150652128Y-60725128D01*
X150658143Y-60755368D01*
X150658145Y-60755376D01*
X150724138Y-60914698D01*
X150724145Y-60914711D01*
X150819954Y-61058098D01*
X150819957Y-61058102D01*
X151394955Y-61633099D01*
X151516901Y-61755045D01*
X151516902Y-61755046D01*
X151660288Y-61850854D01*
X151660301Y-61850861D01*
X151793132Y-61905881D01*
X151819626Y-61916855D01*
X151988766Y-61950499D01*
X151988769Y-61950500D01*
X151988771Y-61950500D01*
X154466574Y-61950500D01*
X154533613Y-61970185D01*
X154579368Y-62022989D01*
X154589312Y-62092147D01*
X154560287Y-62155703D01*
X154506837Y-62191781D01*
X153883777Y-62405677D01*
X153877255Y-62407717D01*
X153194483Y-62600787D01*
X153187858Y-62602465D01*
X152495478Y-62757631D01*
X152488772Y-62758941D01*
X151788888Y-62875731D01*
X151782119Y-62876669D01*
X151076899Y-62954722D01*
X151070089Y-62955287D01*
X150361601Y-62994376D01*
X150354770Y-62994564D01*
X149645230Y-62994564D01*
X149638399Y-62994376D01*
X148929910Y-62955287D01*
X148923100Y-62954722D01*
X148217880Y-62876669D01*
X148211111Y-62875731D01*
X147511227Y-62758941D01*
X147504521Y-62757631D01*
X146812141Y-62602465D01*
X146805516Y-62600787D01*
X146122744Y-62407717D01*
X146116222Y-62405677D01*
X145445116Y-62175286D01*
X145438717Y-62172890D01*
X144781327Y-61905881D01*
X144775069Y-61903136D01*
X144133397Y-61600324D01*
X144127299Y-61597239D01*
X143503244Y-61259517D01*
X143497327Y-61256100D01*
X142892855Y-60884533D01*
X142887134Y-60880795D01*
X142304057Y-60476497D01*
X142298551Y-60472451D01*
X141738598Y-60036624D01*
X141733323Y-60032279D01*
X141602857Y-59918656D01*
X141198251Y-59566284D01*
X141193243Y-59561674D01*
X140684637Y-59066894D01*
X140679872Y-59061996D01*
X140199308Y-58539965D01*
X140194820Y-58534812D01*
X140147584Y-58477457D01*
X139967623Y-58258942D01*
X139743736Y-57987090D01*
X139739539Y-57981697D01*
X139319323Y-57409973D01*
X139315429Y-57404358D01*
X138927316Y-56810306D01*
X138923777Y-56804547D01*
X138568994Y-56190045D01*
X138565741Y-56184035D01*
X138245349Y-55550923D01*
X138242433Y-55544743D01*
X137957410Y-54894957D01*
X137954839Y-54888626D01*
X137886584Y-54706324D01*
X137706041Y-54224115D01*
X137703836Y-54217693D01*
X137492011Y-53540452D01*
X137490166Y-53533930D01*
X137315968Y-52846036D01*
X137314478Y-52839384D01*
X137305135Y-52791554D01*
X137178451Y-52143001D01*
X137177327Y-52136266D01*
X137164121Y-52041033D01*
X137079862Y-51433403D01*
X137079116Y-51426654D01*
X137020522Y-50719527D01*
X137020146Y-50712706D01*
X137019607Y-50693136D01*
X137000594Y-50003410D01*
X137000594Y-49996583D01*
X137003074Y-49906638D01*
X137020146Y-49287288D01*
X137020523Y-49280470D01*
X137021846Y-49264500D01*
X137079116Y-48573341D01*
X137079862Y-48566600D01*
X137177328Y-47863722D01*
X137178452Y-47856993D01*
X137180966Y-47844124D01*
X137314483Y-47160591D01*
X137315966Y-47153970D01*
X137490169Y-46466060D01*
X137492008Y-46459556D01*
X137703839Y-45782295D01*
X137706037Y-45775895D01*
X137954842Y-45111364D01*
X137957410Y-45105042D01*
X137980979Y-45051311D01*
X138242438Y-44455243D01*
X138245349Y-44449076D01*
X138364643Y-44213345D01*
X142100000Y-44213345D01*
X142100000Y-44250000D01*
X142837500Y-44250000D01*
X142837500Y-43525000D01*
X142837499Y-43524999D01*
X142788361Y-43525000D01*
X142788343Y-43525001D01*
X142687347Y-43535319D01*
X142523699Y-43589546D01*
X142523688Y-43589551D01*
X142376965Y-43680052D01*
X142376961Y-43680055D01*
X142255055Y-43801961D01*
X142255052Y-43801965D01*
X142164551Y-43948688D01*
X142164546Y-43948699D01*
X142110319Y-44112347D01*
X142100000Y-44213345D01*
X138364643Y-44213345D01*
X138565749Y-43815947D01*
X138568985Y-43809969D01*
X138923787Y-43195435D01*
X138927306Y-43189709D01*
X139315443Y-42595620D01*
X139319323Y-42590026D01*
X139739546Y-42018292D01*
X139743736Y-42012909D01*
X140194836Y-41465167D01*
X140199290Y-41460053D01*
X140679883Y-40937991D01*
X140684625Y-40933116D01*
X141193262Y-40438307D01*
X141198231Y-40433733D01*
X141733347Y-39967699D01*
X141738574Y-39963394D01*
X142298559Y-39527541D01*
X142304057Y-39523502D01*
X142887146Y-39119195D01*
X142892843Y-39115473D01*
X143497347Y-38743887D01*
X143503223Y-38740493D01*
X144127319Y-38402749D01*
X144133375Y-38399685D01*
X144775089Y-38096854D01*
X144781306Y-38094127D01*
X145438734Y-37827102D01*
X145445100Y-37824718D01*
X146116240Y-37594316D01*
X146122726Y-37592287D01*
X146805541Y-37399205D01*
X146812115Y-37397540D01*
X147504550Y-37242362D01*
X147511198Y-37241063D01*
X148211141Y-37124263D01*
X148217851Y-37123333D01*
X148923115Y-37045275D01*
X148929894Y-37044713D01*
X149638399Y-37005623D01*
X149645230Y-37005436D01*
X150354770Y-37005436D01*
X150361600Y-37005623D01*
G37*
%TD.AperFunction*%
%TA.AperFunction,Conductor*%
G36*
X151894855Y-46166546D02*
G01*
X151911575Y-46185842D01*
X152041501Y-46371396D01*
X152041506Y-46371402D01*
X152107753Y-46437649D01*
X152141238Y-46498972D01*
X152136254Y-46568664D01*
X152107753Y-46613011D01*
X150962584Y-47758181D01*
X150901261Y-47791666D01*
X150874903Y-47794500D01*
X150084298Y-47794500D01*
X150047432Y-47797401D01*
X150047426Y-47797402D01*
X149889606Y-47843254D01*
X149889603Y-47843255D01*
X149748137Y-47926917D01*
X149748129Y-47926923D01*
X149631923Y-48043129D01*
X149631917Y-48043137D01*
X149548255Y-48184603D01*
X149548254Y-48184606D01*
X149502402Y-48342426D01*
X149502401Y-48342432D01*
X149499500Y-48379298D01*
X149499500Y-48810701D01*
X149502401Y-48847567D01*
X149502402Y-48847573D01*
X149548254Y-49005393D01*
X149548254Y-49005394D01*
X149548255Y-49005396D01*
X149548256Y-49005398D01*
X149548257Y-49005400D01*
X149552537Y-49012636D01*
X149569718Y-49080360D01*
X149547558Y-49146622D01*
X149493092Y-49190385D01*
X149459688Y-49198976D01*
X149320749Y-49214630D01*
X149320745Y-49214631D01*
X149150476Y-49274211D01*
X148997737Y-49370184D01*
X148870184Y-49497737D01*
X148774211Y-49650476D01*
X148714631Y-49820745D01*
X148714630Y-49820750D01*
X148694435Y-49999996D01*
X148694435Y-50000003D01*
X148714630Y-50179249D01*
X148714631Y-50179254D01*
X148774211Y-50349523D01*
X148833856Y-50444447D01*
X148870184Y-50502262D01*
X148997738Y-50629816D01*
X149088080Y-50686582D01*
X149135078Y-50716113D01*
X149150478Y-50725789D01*
X149206526Y-50745401D01*
X149320745Y-50785368D01*
X149320750Y-50785369D01*
X149389403Y-50793104D01*
X149453818Y-50820170D01*
X149493373Y-50877764D01*
X149498841Y-50916871D01*
X149499500Y-50916871D01*
X149499500Y-51350701D01*
X149502401Y-51387567D01*
X149502402Y-51387573D01*
X149548254Y-51545393D01*
X149548255Y-51545396D01*
X149631917Y-51686862D01*
X149636702Y-51693031D01*
X149634256Y-51694927D01*
X149660857Y-51743642D01*
X149655873Y-51813334D01*
X149635069Y-51845703D01*
X149636702Y-51846969D01*
X149631917Y-51853137D01*
X149548255Y-51994603D01*
X149548254Y-51994606D01*
X149502402Y-52152426D01*
X149502401Y-52152432D01*
X149499500Y-52189298D01*
X149499500Y-52620701D01*
X149502401Y-52657567D01*
X149502402Y-52657573D01*
X149548254Y-52815393D01*
X149548254Y-52815394D01*
X149561396Y-52837616D01*
X149578578Y-52905340D01*
X149556417Y-52971602D01*
X149542346Y-52988415D01*
X149493787Y-53036976D01*
X149493784Y-53036979D01*
X149493784Y-53036980D01*
X149416113Y-53114650D01*
X149367437Y-53144674D01*
X149248484Y-53184092D01*
X149101648Y-53274661D01*
X149087325Y-53288984D01*
X149026001Y-53322468D01*
X148956309Y-53317482D01*
X148911965Y-53288982D01*
X148898038Y-53275055D01*
X148898034Y-53275052D01*
X148751311Y-53184551D01*
X148751300Y-53184546D01*
X148587652Y-53130319D01*
X148486654Y-53120000D01*
X148387500Y-53120000D01*
X148387500Y-55069999D01*
X148486640Y-55069999D01*
X148486654Y-55069998D01*
X148587652Y-55059680D01*
X148751300Y-55005453D01*
X148751311Y-55005448D01*
X148898035Y-54914947D01*
X148911960Y-54901021D01*
X148973282Y-54867533D01*
X149042973Y-54872514D01*
X149087327Y-54901017D01*
X149101650Y-54915340D01*
X149203096Y-54977912D01*
X149249821Y-55029860D01*
X149262000Y-55083451D01*
X149262000Y-55564304D01*
X149255042Y-55605258D01*
X149214632Y-55720742D01*
X149214630Y-55720750D01*
X149194435Y-55899996D01*
X149194435Y-55900003D01*
X149214630Y-56079249D01*
X149214631Y-56079254D01*
X149274211Y-56249523D01*
X149370184Y-56402262D01*
X149380741Y-56412819D01*
X149414226Y-56474142D01*
X149409242Y-56543834D01*
X149367370Y-56599767D01*
X149301906Y-56624184D01*
X149293060Y-56624500D01*
X148414006Y-56624500D01*
X148346967Y-56604815D01*
X148326325Y-56588181D01*
X147911818Y-56173674D01*
X147878333Y-56112351D01*
X147875499Y-56085993D01*
X147875499Y-55499998D01*
X147875498Y-55499981D01*
X147864999Y-55397203D01*
X147853450Y-55362351D01*
X147810586Y-55232998D01*
X147808185Y-55163174D01*
X147843916Y-55103132D01*
X147864773Y-55092725D01*
X147887500Y-55069999D01*
X147887500Y-54345000D01*
X147100001Y-54345000D01*
X147100001Y-54381654D01*
X147110319Y-54482652D01*
X147161298Y-54636496D01*
X147163700Y-54706324D01*
X147127968Y-54766366D01*
X147065448Y-54797559D01*
X147043592Y-54799500D01*
X146300098Y-54799500D01*
X146233059Y-54779815D01*
X146212417Y-54763181D01*
X145257581Y-53808345D01*
X147100000Y-53808345D01*
X147100000Y-53845000D01*
X147887500Y-53845000D01*
X147887500Y-53119999D01*
X147788360Y-53120000D01*
X147788344Y-53120001D01*
X147687347Y-53130319D01*
X147523699Y-53184546D01*
X147523694Y-53184548D01*
X147424511Y-53245726D01*
X147378139Y-53258414D01*
X147362635Y-53289278D01*
X147359683Y-53292334D01*
X147255052Y-53396965D01*
X147164551Y-53543688D01*
X147164546Y-53543699D01*
X147110319Y-53707347D01*
X147100000Y-53808345D01*
X145257581Y-53808345D01*
X145236819Y-53787583D01*
X145203334Y-53726260D01*
X145200500Y-53699902D01*
X145200500Y-53329000D01*
X145220185Y-53261961D01*
X145272989Y-53216206D01*
X145324500Y-53205000D01*
X145775000Y-53205000D01*
X146275000Y-53205000D01*
X146915634Y-53205000D01*
X146915649Y-53204999D01*
X146952489Y-53202100D01*
X146952495Y-53202099D01*
X147110193Y-53156283D01*
X147110196Y-53156282D01*
X147208880Y-53097921D01*
X147253113Y-53086697D01*
X147267220Y-53057263D01*
X147271733Y-53052505D01*
X147367681Y-52956557D01*
X147367685Y-52956552D01*
X147451281Y-52815198D01*
X147497100Y-52657486D01*
X147497295Y-52655001D01*
X147497295Y-52655000D01*
X146275000Y-52655000D01*
X146275000Y-53205000D01*
X145775000Y-53205000D01*
X145775000Y-52529000D01*
X145794685Y-52461961D01*
X145847489Y-52416206D01*
X145899000Y-52405000D01*
X146025000Y-52405000D01*
X146025000Y-52279000D01*
X146044685Y-52211961D01*
X146097489Y-52166206D01*
X146149000Y-52155000D01*
X147497295Y-52155000D01*
X147497295Y-52154998D01*
X147497100Y-52152513D01*
X147451281Y-51994801D01*
X147367685Y-51853447D01*
X147362900Y-51847278D01*
X147365366Y-51845364D01*
X147338802Y-51796776D01*
X147343749Y-51727082D01*
X147364856Y-51694232D01*
X147363301Y-51693026D01*
X147368077Y-51686868D01*
X147368081Y-51686865D01*
X147451744Y-51545398D01*
X147497598Y-51387569D01*
X147500500Y-51350694D01*
X147500500Y-50919306D01*
X147497598Y-50882431D01*
X147496242Y-50877764D01*
X147452089Y-50725789D01*
X147451744Y-50724602D01*
X147368081Y-50583135D01*
X147368078Y-50583132D01*
X147363298Y-50576969D01*
X147365750Y-50575066D01*
X147339155Y-50526421D01*
X147344104Y-50456726D01*
X147364940Y-50424304D01*
X147363298Y-50423031D01*
X147368075Y-50416870D01*
X147368081Y-50416865D01*
X147451744Y-50275398D01*
X147497598Y-50117569D01*
X147500500Y-50080694D01*
X147500500Y-49649306D01*
X147497598Y-49612431D01*
X147497145Y-49610873D01*
X147451745Y-49454606D01*
X147451744Y-49454603D01*
X147451744Y-49454602D01*
X147409174Y-49382621D01*
X147391992Y-49314898D01*
X147414152Y-49248636D01*
X147468618Y-49204872D01*
X147515907Y-49195501D01*
X147524054Y-49195501D01*
X147524057Y-49195501D01*
X147676785Y-49154577D01*
X147728879Y-49124500D01*
X147813716Y-49075520D01*
X147925520Y-48963716D01*
X147925520Y-48963714D01*
X147935724Y-48953511D01*
X147935728Y-48953506D01*
X150056470Y-46832763D01*
X150117791Y-46799280D01*
X150176238Y-46800670D01*
X150304592Y-46835063D01*
X150475319Y-46850000D01*
X150539999Y-46855659D01*
X150540000Y-46855659D01*
X150540001Y-46855659D01*
X150604681Y-46850000D01*
X150775408Y-46835063D01*
X151003663Y-46773903D01*
X151217830Y-46674035D01*
X151411401Y-46538495D01*
X151578495Y-46371401D01*
X151708425Y-46185842D01*
X151763002Y-46142217D01*
X151832500Y-46135023D01*
X151894855Y-46166546D01*
G37*
%TD.AperFunction*%
%TA.AperFunction,Conductor*%
G36*
X155870000Y-46850000D02*
G01*
X156435716Y-46850000D01*
X156502755Y-46869685D01*
X156548510Y-46922489D01*
X156558454Y-46991647D01*
X156529429Y-47055203D01*
X156523397Y-47061681D01*
X154431981Y-49153096D01*
X154431980Y-49153098D01*
X154390963Y-49224142D01*
X154352923Y-49290029D01*
X154311999Y-49442757D01*
X154311999Y-49442759D01*
X154311999Y-49610860D01*
X154312000Y-49610873D01*
X154312000Y-50042388D01*
X154292315Y-50109427D01*
X154253098Y-50147926D01*
X154201650Y-50179659D01*
X154201649Y-50179660D01*
X154087681Y-50293629D01*
X154026358Y-50327114D01*
X153956666Y-50322130D01*
X153912319Y-50293629D01*
X153798350Y-50179660D01*
X153798346Y-50179657D01*
X153746904Y-50147927D01*
X153700179Y-50095979D01*
X153688001Y-50042389D01*
X153688001Y-49920945D01*
X153688001Y-49920943D01*
X153647077Y-49768215D01*
X153618139Y-49718095D01*
X153568020Y-49631284D01*
X153456216Y-49519480D01*
X153456215Y-49519479D01*
X153451885Y-49515149D01*
X153451874Y-49515139D01*
X153440090Y-49503355D01*
X153440088Y-49503352D01*
X153321217Y-49384481D01*
X153321216Y-49384480D01*
X153234404Y-49334360D01*
X153234404Y-49334359D01*
X153234400Y-49334358D01*
X153184285Y-49305423D01*
X153031557Y-49264499D01*
X152873443Y-49264499D01*
X152865847Y-49264499D01*
X152865831Y-49264500D01*
X152465907Y-49264500D01*
X152398868Y-49244815D01*
X152353113Y-49192011D01*
X152343169Y-49122853D01*
X152359175Y-49077380D01*
X152397463Y-49012636D01*
X152401744Y-49005398D01*
X152447598Y-48847569D01*
X152450500Y-48810694D01*
X152450500Y-48379306D01*
X152447598Y-48342431D01*
X152401744Y-48184602D01*
X152388602Y-48162381D01*
X152371420Y-48094658D01*
X152393580Y-48028395D01*
X152407648Y-48011586D01*
X153560520Y-46858716D01*
X153614186Y-46765760D01*
X153664752Y-46717544D01*
X153669107Y-46715406D01*
X153757830Y-46674035D01*
X153951401Y-46538495D01*
X154073717Y-46416178D01*
X154135036Y-46382696D01*
X154204728Y-46387680D01*
X154260662Y-46429551D01*
X154277577Y-46460528D01*
X154326646Y-46592088D01*
X154326649Y-46592093D01*
X154412809Y-46707187D01*
X154412812Y-46707190D01*
X154527906Y-46793350D01*
X154527913Y-46793354D01*
X154662620Y-46843596D01*
X154662627Y-46843598D01*
X154722155Y-46849999D01*
X154722172Y-46850000D01*
X155370000Y-46850000D01*
X155370000Y-45933012D01*
X155427007Y-45965925D01*
X155554174Y-46000000D01*
X155685826Y-46000000D01*
X155812993Y-45965925D01*
X155870000Y-45933012D01*
X155870000Y-46850000D01*
G37*
%TD.AperFunction*%
%TD*%
M02*
