%TF.GenerationSoftware,KiCad,Pcbnew,8.0.7*%
%TF.CreationDate,2024-12-12T10:30:31+01:00*%
%TF.ProjectId,pcb_actionneur_ventouse,7063625f-6163-4746-996f-6e6e6575725f,rev?*%
%TF.SameCoordinates,Original*%
%TF.FileFunction,Legend,Bot*%
%TF.FilePolarity,Positive*%
%FSLAX46Y46*%
G04 Gerber Fmt 4.6, Leading zero omitted, Abs format (unit mm)*
G04 Created by KiCad (PCBNEW 8.0.7) date 2024-12-12 10:30:31*
%MOMM*%
%LPD*%
G01*
G04 APERTURE LIST*
%ADD10C,0.150000*%
%ADD11C,0.120000*%
G04 APERTURE END LIST*
D10*
X155738094Y-61954819D02*
X155738094Y-60954819D01*
X155738094Y-60954819D02*
X155499999Y-60954819D01*
X155499999Y-60954819D02*
X155357142Y-61002438D01*
X155357142Y-61002438D02*
X155261904Y-61097676D01*
X155261904Y-61097676D02*
X155214285Y-61192914D01*
X155214285Y-61192914D02*
X155166666Y-61383390D01*
X155166666Y-61383390D02*
X155166666Y-61526247D01*
X155166666Y-61526247D02*
X155214285Y-61716723D01*
X155214285Y-61716723D02*
X155261904Y-61811961D01*
X155261904Y-61811961D02*
X155357142Y-61907200D01*
X155357142Y-61907200D02*
X155499999Y-61954819D01*
X155499999Y-61954819D02*
X155738094Y-61954819D01*
X154261904Y-60954819D02*
X154738094Y-60954819D01*
X154738094Y-60954819D02*
X154785713Y-61431009D01*
X154785713Y-61431009D02*
X154738094Y-61383390D01*
X154738094Y-61383390D02*
X154642856Y-61335771D01*
X154642856Y-61335771D02*
X154404761Y-61335771D01*
X154404761Y-61335771D02*
X154309523Y-61383390D01*
X154309523Y-61383390D02*
X154261904Y-61431009D01*
X154261904Y-61431009D02*
X154214285Y-61526247D01*
X154214285Y-61526247D02*
X154214285Y-61764342D01*
X154214285Y-61764342D02*
X154261904Y-61859580D01*
X154261904Y-61859580D02*
X154309523Y-61907200D01*
X154309523Y-61907200D02*
X154404761Y-61954819D01*
X154404761Y-61954819D02*
X154642856Y-61954819D01*
X154642856Y-61954819D02*
X154738094Y-61907200D01*
X154738094Y-61907200D02*
X154785713Y-61859580D01*
X149738094Y-61954819D02*
X149738094Y-60954819D01*
X149738094Y-60954819D02*
X149499999Y-60954819D01*
X149499999Y-60954819D02*
X149357142Y-61002438D01*
X149357142Y-61002438D02*
X149261904Y-61097676D01*
X149261904Y-61097676D02*
X149214285Y-61192914D01*
X149214285Y-61192914D02*
X149166666Y-61383390D01*
X149166666Y-61383390D02*
X149166666Y-61526247D01*
X149166666Y-61526247D02*
X149214285Y-61716723D01*
X149214285Y-61716723D02*
X149261904Y-61811961D01*
X149261904Y-61811961D02*
X149357142Y-61907200D01*
X149357142Y-61907200D02*
X149499999Y-61954819D01*
X149499999Y-61954819D02*
X149738094Y-61954819D01*
X148309523Y-61288152D02*
X148309523Y-61954819D01*
X148547618Y-60907200D02*
X148785713Y-61621485D01*
X148785713Y-61621485D02*
X148166666Y-61621485D01*
X146666666Y-51454819D02*
X146999999Y-50978628D01*
X147238094Y-51454819D02*
X147238094Y-50454819D01*
X147238094Y-50454819D02*
X146857142Y-50454819D01*
X146857142Y-50454819D02*
X146761904Y-50502438D01*
X146761904Y-50502438D02*
X146714285Y-50550057D01*
X146714285Y-50550057D02*
X146666666Y-50645295D01*
X146666666Y-50645295D02*
X146666666Y-50788152D01*
X146666666Y-50788152D02*
X146714285Y-50883390D01*
X146714285Y-50883390D02*
X146761904Y-50931009D01*
X146761904Y-50931009D02*
X146857142Y-50978628D01*
X146857142Y-50978628D02*
X147238094Y-50978628D01*
X145761904Y-50454819D02*
X146238094Y-50454819D01*
X146238094Y-50454819D02*
X146285713Y-50931009D01*
X146285713Y-50931009D02*
X146238094Y-50883390D01*
X146238094Y-50883390D02*
X146142856Y-50835771D01*
X146142856Y-50835771D02*
X145904761Y-50835771D01*
X145904761Y-50835771D02*
X145809523Y-50883390D01*
X145809523Y-50883390D02*
X145761904Y-50931009D01*
X145761904Y-50931009D02*
X145714285Y-51026247D01*
X145714285Y-51026247D02*
X145714285Y-51264342D01*
X145714285Y-51264342D02*
X145761904Y-51359580D01*
X145761904Y-51359580D02*
X145809523Y-51407200D01*
X145809523Y-51407200D02*
X145904761Y-51454819D01*
X145904761Y-51454819D02*
X146142856Y-51454819D01*
X146142856Y-51454819D02*
X146238094Y-51407200D01*
X146238094Y-51407200D02*
X146285713Y-51359580D01*
X153166666Y-53042319D02*
X153499999Y-52566128D01*
X153738094Y-53042319D02*
X153738094Y-52042319D01*
X153738094Y-52042319D02*
X153357142Y-52042319D01*
X153357142Y-52042319D02*
X153261904Y-52089938D01*
X153261904Y-52089938D02*
X153214285Y-52137557D01*
X153214285Y-52137557D02*
X153166666Y-52232795D01*
X153166666Y-52232795D02*
X153166666Y-52375652D01*
X153166666Y-52375652D02*
X153214285Y-52470890D01*
X153214285Y-52470890D02*
X153261904Y-52518509D01*
X153261904Y-52518509D02*
X153357142Y-52566128D01*
X153357142Y-52566128D02*
X153738094Y-52566128D01*
X152309523Y-52375652D02*
X152309523Y-53042319D01*
X152547618Y-51994700D02*
X152785713Y-52708985D01*
X152785713Y-52708985D02*
X152166666Y-52708985D01*
X149657738Y-55050057D02*
X149752976Y-55002438D01*
X149752976Y-55002438D02*
X149848214Y-54907200D01*
X149848214Y-54907200D02*
X149991071Y-54764342D01*
X149991071Y-54764342D02*
X150086309Y-54716723D01*
X150086309Y-54716723D02*
X150181547Y-54716723D01*
X150133928Y-54954819D02*
X150229166Y-54907200D01*
X150229166Y-54907200D02*
X150324404Y-54811961D01*
X150324404Y-54811961D02*
X150372023Y-54621485D01*
X150372023Y-54621485D02*
X150372023Y-54288152D01*
X150372023Y-54288152D02*
X150324404Y-54097676D01*
X150324404Y-54097676D02*
X150229166Y-54002438D01*
X150229166Y-54002438D02*
X150133928Y-53954819D01*
X150133928Y-53954819D02*
X149943452Y-53954819D01*
X149943452Y-53954819D02*
X149848214Y-54002438D01*
X149848214Y-54002438D02*
X149752976Y-54097676D01*
X149752976Y-54097676D02*
X149705357Y-54288152D01*
X149705357Y-54288152D02*
X149705357Y-54621485D01*
X149705357Y-54621485D02*
X149752976Y-54811961D01*
X149752976Y-54811961D02*
X149848214Y-54907200D01*
X149848214Y-54907200D02*
X149943452Y-54954819D01*
X149943452Y-54954819D02*
X150133928Y-54954819D01*
X149324404Y-54050057D02*
X149276785Y-54002438D01*
X149276785Y-54002438D02*
X149181547Y-53954819D01*
X149181547Y-53954819D02*
X148943452Y-53954819D01*
X148943452Y-53954819D02*
X148848214Y-54002438D01*
X148848214Y-54002438D02*
X148800595Y-54050057D01*
X148800595Y-54050057D02*
X148752976Y-54145295D01*
X148752976Y-54145295D02*
X148752976Y-54240533D01*
X148752976Y-54240533D02*
X148800595Y-54383390D01*
X148800595Y-54383390D02*
X149372023Y-54954819D01*
X149372023Y-54954819D02*
X148752976Y-54954819D01*
X159095238Y-57050057D02*
X159190476Y-57002438D01*
X159190476Y-57002438D02*
X159285714Y-56907200D01*
X159285714Y-56907200D02*
X159428571Y-56764342D01*
X159428571Y-56764342D02*
X159523809Y-56716723D01*
X159523809Y-56716723D02*
X159619047Y-56716723D01*
X159571428Y-56954819D02*
X159666666Y-56907200D01*
X159666666Y-56907200D02*
X159761904Y-56811961D01*
X159761904Y-56811961D02*
X159809523Y-56621485D01*
X159809523Y-56621485D02*
X159809523Y-56288152D01*
X159809523Y-56288152D02*
X159761904Y-56097676D01*
X159761904Y-56097676D02*
X159666666Y-56002438D01*
X159666666Y-56002438D02*
X159571428Y-55954819D01*
X159571428Y-55954819D02*
X159380952Y-55954819D01*
X159380952Y-55954819D02*
X159285714Y-56002438D01*
X159285714Y-56002438D02*
X159190476Y-56097676D01*
X159190476Y-56097676D02*
X159142857Y-56288152D01*
X159142857Y-56288152D02*
X159142857Y-56621485D01*
X159142857Y-56621485D02*
X159190476Y-56811961D01*
X159190476Y-56811961D02*
X159285714Y-56907200D01*
X159285714Y-56907200D02*
X159380952Y-56954819D01*
X159380952Y-56954819D02*
X159571428Y-56954819D01*
X158190476Y-56954819D02*
X158761904Y-56954819D01*
X158476190Y-56954819D02*
X158476190Y-55954819D01*
X158476190Y-55954819D02*
X158571428Y-56097676D01*
X158571428Y-56097676D02*
X158666666Y-56192914D01*
X158666666Y-56192914D02*
X158761904Y-56240533D01*
D11*
%TO.C,D5*%
X156360000Y-60500000D02*
X156360000Y-58500000D01*
X152350000Y-58500000D02*
X156360000Y-58500000D01*
X152350000Y-60500000D02*
X156360000Y-60500000D01*
%TO.C,D4*%
X149860000Y-60500000D02*
X149860000Y-58500000D01*
X145850000Y-58500000D02*
X149860000Y-58500000D01*
X145850000Y-60500000D02*
X149860000Y-60500000D01*
%TO.C,R5*%
X146245276Y-53022500D02*
X146754724Y-53022500D01*
X146245276Y-51977500D02*
X146754724Y-51977500D01*
%TO.C,R4*%
X152477500Y-55754724D02*
X152477500Y-55245276D01*
X153522500Y-55754724D02*
X153522500Y-55245276D01*
%TO.C,Q2*%
X147150000Y-53940000D02*
X146500000Y-53940000D01*
X145850000Y-53940000D02*
X146500000Y-53940000D01*
X147150000Y-57060000D02*
X146500000Y-57060000D01*
X145850000Y-57060000D02*
X146500000Y-57060000D01*
X147662500Y-53990000D02*
X147422500Y-53660000D01*
X147902500Y-53660000D01*
X147662500Y-53990000D01*
G36*
X147662500Y-53990000D02*
G01*
X147422500Y-53660000D01*
X147902500Y-53660000D01*
X147662500Y-53990000D01*
G37*
%TO.C,Q1*%
X155350000Y-57060000D02*
X156000000Y-57060000D01*
X156650000Y-57060000D02*
X156000000Y-57060000D01*
X155350000Y-53940000D02*
X156000000Y-53940000D01*
X156650000Y-53940000D02*
X156000000Y-53940000D01*
X155077500Y-57340000D02*
X154597500Y-57340000D01*
X154837500Y-57010000D01*
X155077500Y-57340000D01*
G36*
X155077500Y-57340000D02*
G01*
X154597500Y-57340000D01*
X154837500Y-57010000D01*
X155077500Y-57340000D01*
G37*
%TD*%
M02*
