%TF.GenerationSoftware,KiCad,Pcbnew,8.0.7*%
%TF.CreationDate,2024-12-12T10:30:31+01:00*%
%TF.ProjectId,pcb_actionneur_ventouse,7063625f-6163-4746-996f-6e6e6575725f,rev?*%
%TF.SameCoordinates,Original*%
%TF.FileFunction,Legend,Top*%
%TF.FilePolarity,Positive*%
%FSLAX46Y46*%
G04 Gerber Fmt 4.6, Leading zero omitted, Abs format (unit mm)*
G04 Created by KiCad (PCBNEW 8.0.7) date 2024-12-12 10:30:31*
%MOMM*%
%LPD*%
G01*
G04 APERTURE LIST*
%ADD10C,0.150000*%
%ADD11C,0.120000*%
G04 APERTURE END LIST*
D10*
X145134819Y-59166666D02*
X144658628Y-59499999D01*
X145134819Y-59738094D02*
X144134819Y-59738094D01*
X144134819Y-59738094D02*
X144134819Y-59357142D01*
X144134819Y-59357142D02*
X144182438Y-59261904D01*
X144182438Y-59261904D02*
X144230057Y-59214285D01*
X144230057Y-59214285D02*
X144325295Y-59166666D01*
X144325295Y-59166666D02*
X144468152Y-59166666D01*
X144468152Y-59166666D02*
X144563390Y-59214285D01*
X144563390Y-59214285D02*
X144611009Y-59261904D01*
X144611009Y-59261904D02*
X144658628Y-59357142D01*
X144658628Y-59357142D02*
X144658628Y-59738094D01*
X144134819Y-58309523D02*
X144134819Y-58499999D01*
X144134819Y-58499999D02*
X144182438Y-58595237D01*
X144182438Y-58595237D02*
X144230057Y-58642856D01*
X144230057Y-58642856D02*
X144372914Y-58738094D01*
X144372914Y-58738094D02*
X144563390Y-58785713D01*
X144563390Y-58785713D02*
X144944342Y-58785713D01*
X144944342Y-58785713D02*
X145039580Y-58738094D01*
X145039580Y-58738094D02*
X145087200Y-58690475D01*
X145087200Y-58690475D02*
X145134819Y-58595237D01*
X145134819Y-58595237D02*
X145134819Y-58404761D01*
X145134819Y-58404761D02*
X145087200Y-58309523D01*
X145087200Y-58309523D02*
X145039580Y-58261904D01*
X145039580Y-58261904D02*
X144944342Y-58214285D01*
X144944342Y-58214285D02*
X144706247Y-58214285D01*
X144706247Y-58214285D02*
X144611009Y-58261904D01*
X144611009Y-58261904D02*
X144563390Y-58309523D01*
X144563390Y-58309523D02*
X144515771Y-58404761D01*
X144515771Y-58404761D02*
X144515771Y-58595237D01*
X144515771Y-58595237D02*
X144563390Y-58690475D01*
X144563390Y-58690475D02*
X144611009Y-58738094D01*
X144611009Y-58738094D02*
X144706247Y-58785713D01*
X158166666Y-45954819D02*
X158166666Y-46669104D01*
X158166666Y-46669104D02*
X158119047Y-46811961D01*
X158119047Y-46811961D02*
X158023809Y-46907200D01*
X158023809Y-46907200D02*
X157880952Y-46954819D01*
X157880952Y-46954819D02*
X157785714Y-46954819D01*
X158595238Y-46050057D02*
X158642857Y-46002438D01*
X158642857Y-46002438D02*
X158738095Y-45954819D01*
X158738095Y-45954819D02*
X158976190Y-45954819D01*
X158976190Y-45954819D02*
X159071428Y-46002438D01*
X159071428Y-46002438D02*
X159119047Y-46050057D01*
X159119047Y-46050057D02*
X159166666Y-46145295D01*
X159166666Y-46145295D02*
X159166666Y-46240533D01*
X159166666Y-46240533D02*
X159119047Y-46383390D01*
X159119047Y-46383390D02*
X158547619Y-46954819D01*
X158547619Y-46954819D02*
X159166666Y-46954819D01*
X149166666Y-56954819D02*
X149166666Y-57669104D01*
X149166666Y-57669104D02*
X149119047Y-57811961D01*
X149119047Y-57811961D02*
X149023809Y-57907200D01*
X149023809Y-57907200D02*
X148880952Y-57954819D01*
X148880952Y-57954819D02*
X148785714Y-57954819D01*
X149690476Y-57954819D02*
X149880952Y-57954819D01*
X149880952Y-57954819D02*
X149976190Y-57907200D01*
X149976190Y-57907200D02*
X150023809Y-57859580D01*
X150023809Y-57859580D02*
X150119047Y-57716723D01*
X150119047Y-57716723D02*
X150166666Y-57526247D01*
X150166666Y-57526247D02*
X150166666Y-57145295D01*
X150166666Y-57145295D02*
X150119047Y-57050057D01*
X150119047Y-57050057D02*
X150071428Y-57002438D01*
X150071428Y-57002438D02*
X149976190Y-56954819D01*
X149976190Y-56954819D02*
X149785714Y-56954819D01*
X149785714Y-56954819D02*
X149690476Y-57002438D01*
X149690476Y-57002438D02*
X149642857Y-57050057D01*
X149642857Y-57050057D02*
X149595238Y-57145295D01*
X149595238Y-57145295D02*
X149595238Y-57383390D01*
X149595238Y-57383390D02*
X149642857Y-57478628D01*
X149642857Y-57478628D02*
X149690476Y-57526247D01*
X149690476Y-57526247D02*
X149785714Y-57573866D01*
X149785714Y-57573866D02*
X149976190Y-57573866D01*
X149976190Y-57573866D02*
X150071428Y-57526247D01*
X150071428Y-57526247D02*
X150119047Y-57478628D01*
X150119047Y-57478628D02*
X150166666Y-57383390D01*
X144190476Y-38454819D02*
X144190476Y-39169104D01*
X144190476Y-39169104D02*
X144142857Y-39311961D01*
X144142857Y-39311961D02*
X144047619Y-39407200D01*
X144047619Y-39407200D02*
X143904762Y-39454819D01*
X143904762Y-39454819D02*
X143809524Y-39454819D01*
X145190476Y-39454819D02*
X144619048Y-39454819D01*
X144904762Y-39454819D02*
X144904762Y-38454819D01*
X144904762Y-38454819D02*
X144809524Y-38597676D01*
X144809524Y-38597676D02*
X144714286Y-38692914D01*
X144714286Y-38692914D02*
X144619048Y-38740533D01*
X145809524Y-38454819D02*
X145904762Y-38454819D01*
X145904762Y-38454819D02*
X146000000Y-38502438D01*
X146000000Y-38502438D02*
X146047619Y-38550057D01*
X146047619Y-38550057D02*
X146095238Y-38645295D01*
X146095238Y-38645295D02*
X146142857Y-38835771D01*
X146142857Y-38835771D02*
X146142857Y-39073866D01*
X146142857Y-39073866D02*
X146095238Y-39264342D01*
X146095238Y-39264342D02*
X146047619Y-39359580D01*
X146047619Y-39359580D02*
X146000000Y-39407200D01*
X146000000Y-39407200D02*
X145904762Y-39454819D01*
X145904762Y-39454819D02*
X145809524Y-39454819D01*
X145809524Y-39454819D02*
X145714286Y-39407200D01*
X145714286Y-39407200D02*
X145666667Y-39359580D01*
X145666667Y-39359580D02*
X145619048Y-39264342D01*
X145619048Y-39264342D02*
X145571429Y-39073866D01*
X145571429Y-39073866D02*
X145571429Y-38835771D01*
X145571429Y-38835771D02*
X145619048Y-38645295D01*
X145619048Y-38645295D02*
X145666667Y-38550057D01*
X145666667Y-38550057D02*
X145714286Y-38502438D01*
X145714286Y-38502438D02*
X145809524Y-38454819D01*
X153166666Y-56954819D02*
X153166666Y-57669104D01*
X153166666Y-57669104D02*
X153119047Y-57811961D01*
X153119047Y-57811961D02*
X153023809Y-57907200D01*
X153023809Y-57907200D02*
X152880952Y-57954819D01*
X152880952Y-57954819D02*
X152785714Y-57954819D01*
X153547619Y-56954819D02*
X154214285Y-56954819D01*
X154214285Y-56954819D02*
X153785714Y-57954819D01*
X155166666Y-56954819D02*
X155166666Y-57669104D01*
X155166666Y-57669104D02*
X155119047Y-57811961D01*
X155119047Y-57811961D02*
X155023809Y-57907200D01*
X155023809Y-57907200D02*
X154880952Y-57954819D01*
X154880952Y-57954819D02*
X154785714Y-57954819D01*
X156071428Y-56954819D02*
X155880952Y-56954819D01*
X155880952Y-56954819D02*
X155785714Y-57002438D01*
X155785714Y-57002438D02*
X155738095Y-57050057D01*
X155738095Y-57050057D02*
X155642857Y-57192914D01*
X155642857Y-57192914D02*
X155595238Y-57383390D01*
X155595238Y-57383390D02*
X155595238Y-57764342D01*
X155595238Y-57764342D02*
X155642857Y-57859580D01*
X155642857Y-57859580D02*
X155690476Y-57907200D01*
X155690476Y-57907200D02*
X155785714Y-57954819D01*
X155785714Y-57954819D02*
X155976190Y-57954819D01*
X155976190Y-57954819D02*
X156071428Y-57907200D01*
X156071428Y-57907200D02*
X156119047Y-57859580D01*
X156119047Y-57859580D02*
X156166666Y-57764342D01*
X156166666Y-57764342D02*
X156166666Y-57526247D01*
X156166666Y-57526247D02*
X156119047Y-57431009D01*
X156119047Y-57431009D02*
X156071428Y-57383390D01*
X156071428Y-57383390D02*
X155976190Y-57335771D01*
X155976190Y-57335771D02*
X155785714Y-57335771D01*
X155785714Y-57335771D02*
X155690476Y-57383390D01*
X155690476Y-57383390D02*
X155642857Y-57431009D01*
X155642857Y-57431009D02*
X155595238Y-57526247D01*
X151166666Y-56954819D02*
X151166666Y-57669104D01*
X151166666Y-57669104D02*
X151119047Y-57811961D01*
X151119047Y-57811961D02*
X151023809Y-57907200D01*
X151023809Y-57907200D02*
X150880952Y-57954819D01*
X150880952Y-57954819D02*
X150785714Y-57954819D01*
X151785714Y-57383390D02*
X151690476Y-57335771D01*
X151690476Y-57335771D02*
X151642857Y-57288152D01*
X151642857Y-57288152D02*
X151595238Y-57192914D01*
X151595238Y-57192914D02*
X151595238Y-57145295D01*
X151595238Y-57145295D02*
X151642857Y-57050057D01*
X151642857Y-57050057D02*
X151690476Y-57002438D01*
X151690476Y-57002438D02*
X151785714Y-56954819D01*
X151785714Y-56954819D02*
X151976190Y-56954819D01*
X151976190Y-56954819D02*
X152071428Y-57002438D01*
X152071428Y-57002438D02*
X152119047Y-57050057D01*
X152119047Y-57050057D02*
X152166666Y-57145295D01*
X152166666Y-57145295D02*
X152166666Y-57192914D01*
X152166666Y-57192914D02*
X152119047Y-57288152D01*
X152119047Y-57288152D02*
X152071428Y-57335771D01*
X152071428Y-57335771D02*
X151976190Y-57383390D01*
X151976190Y-57383390D02*
X151785714Y-57383390D01*
X151785714Y-57383390D02*
X151690476Y-57431009D01*
X151690476Y-57431009D02*
X151642857Y-57478628D01*
X151642857Y-57478628D02*
X151595238Y-57573866D01*
X151595238Y-57573866D02*
X151595238Y-57764342D01*
X151595238Y-57764342D02*
X151642857Y-57859580D01*
X151642857Y-57859580D02*
X151690476Y-57907200D01*
X151690476Y-57907200D02*
X151785714Y-57954819D01*
X151785714Y-57954819D02*
X151976190Y-57954819D01*
X151976190Y-57954819D02*
X152071428Y-57907200D01*
X152071428Y-57907200D02*
X152119047Y-57859580D01*
X152119047Y-57859580D02*
X152166666Y-57764342D01*
X152166666Y-57764342D02*
X152166666Y-57573866D01*
X152166666Y-57573866D02*
X152119047Y-57478628D01*
X152119047Y-57478628D02*
X152071428Y-57431009D01*
X152071428Y-57431009D02*
X151976190Y-57383390D01*
X151286666Y-38494819D02*
X151286666Y-39209104D01*
X151286666Y-39209104D02*
X151239047Y-39351961D01*
X151239047Y-39351961D02*
X151143809Y-39447200D01*
X151143809Y-39447200D02*
X151000952Y-39494819D01*
X151000952Y-39494819D02*
X150905714Y-39494819D01*
X152286666Y-39494819D02*
X151715238Y-39494819D01*
X152000952Y-39494819D02*
X152000952Y-38494819D01*
X152000952Y-38494819D02*
X151905714Y-38637676D01*
X151905714Y-38637676D02*
X151810476Y-38732914D01*
X151810476Y-38732914D02*
X151715238Y-38780533D01*
X146333333Y-54359580D02*
X146285714Y-54407200D01*
X146285714Y-54407200D02*
X146142857Y-54454819D01*
X146142857Y-54454819D02*
X146047619Y-54454819D01*
X146047619Y-54454819D02*
X145904762Y-54407200D01*
X145904762Y-54407200D02*
X145809524Y-54311961D01*
X145809524Y-54311961D02*
X145761905Y-54216723D01*
X145761905Y-54216723D02*
X145714286Y-54026247D01*
X145714286Y-54026247D02*
X145714286Y-53883390D01*
X145714286Y-53883390D02*
X145761905Y-53692914D01*
X145761905Y-53692914D02*
X145809524Y-53597676D01*
X145809524Y-53597676D02*
X145904762Y-53502438D01*
X145904762Y-53502438D02*
X146047619Y-53454819D01*
X146047619Y-53454819D02*
X146142857Y-53454819D01*
X146142857Y-53454819D02*
X146285714Y-53502438D01*
X146285714Y-53502438D02*
X146333333Y-53550057D01*
X147285714Y-54454819D02*
X146714286Y-54454819D01*
X147000000Y-54454819D02*
X147000000Y-53454819D01*
X147000000Y-53454819D02*
X146904762Y-53597676D01*
X146904762Y-53597676D02*
X146809524Y-53692914D01*
X146809524Y-53692914D02*
X146714286Y-53740533D01*
X152738095Y-47454819D02*
X152738095Y-48264342D01*
X152738095Y-48264342D02*
X152785714Y-48359580D01*
X152785714Y-48359580D02*
X152833333Y-48407200D01*
X152833333Y-48407200D02*
X152928571Y-48454819D01*
X152928571Y-48454819D02*
X153119047Y-48454819D01*
X153119047Y-48454819D02*
X153214285Y-48407200D01*
X153214285Y-48407200D02*
X153261904Y-48359580D01*
X153261904Y-48359580D02*
X153309523Y-48264342D01*
X153309523Y-48264342D02*
X153309523Y-47454819D01*
X154309523Y-48454819D02*
X153738095Y-48454819D01*
X154023809Y-48454819D02*
X154023809Y-47454819D01*
X154023809Y-47454819D02*
X153928571Y-47597676D01*
X153928571Y-47597676D02*
X153833333Y-47692914D01*
X153833333Y-47692914D02*
X153738095Y-47740533D01*
X161166666Y-52454819D02*
X161166666Y-53169104D01*
X161166666Y-53169104D02*
X161119047Y-53311961D01*
X161119047Y-53311961D02*
X161023809Y-53407200D01*
X161023809Y-53407200D02*
X160880952Y-53454819D01*
X160880952Y-53454819D02*
X160785714Y-53454819D01*
X162071428Y-52788152D02*
X162071428Y-53454819D01*
X161833333Y-52407200D02*
X161595238Y-53121485D01*
X161595238Y-53121485D02*
X162214285Y-53121485D01*
X138166666Y-52454819D02*
X138166666Y-53169104D01*
X138166666Y-53169104D02*
X138119047Y-53311961D01*
X138119047Y-53311961D02*
X138023809Y-53407200D01*
X138023809Y-53407200D02*
X137880952Y-53454819D01*
X137880952Y-53454819D02*
X137785714Y-53454819D01*
X139119047Y-52454819D02*
X138642857Y-52454819D01*
X138642857Y-52454819D02*
X138595238Y-52931009D01*
X138595238Y-52931009D02*
X138642857Y-52883390D01*
X138642857Y-52883390D02*
X138738095Y-52835771D01*
X138738095Y-52835771D02*
X138976190Y-52835771D01*
X138976190Y-52835771D02*
X139071428Y-52883390D01*
X139071428Y-52883390D02*
X139119047Y-52931009D01*
X139119047Y-52931009D02*
X139166666Y-53026247D01*
X139166666Y-53026247D02*
X139166666Y-53264342D01*
X139166666Y-53264342D02*
X139119047Y-53359580D01*
X139119047Y-53359580D02*
X139071428Y-53407200D01*
X139071428Y-53407200D02*
X138976190Y-53454819D01*
X138976190Y-53454819D02*
X138738095Y-53454819D01*
X138738095Y-53454819D02*
X138642857Y-53407200D01*
X138642857Y-53407200D02*
X138595238Y-53359580D01*
X153245833Y-52954819D02*
X152912500Y-52478628D01*
X152674405Y-52954819D02*
X152674405Y-51954819D01*
X152674405Y-51954819D02*
X153055357Y-51954819D01*
X153055357Y-51954819D02*
X153150595Y-52002438D01*
X153150595Y-52002438D02*
X153198214Y-52050057D01*
X153198214Y-52050057D02*
X153245833Y-52145295D01*
X153245833Y-52145295D02*
X153245833Y-52288152D01*
X153245833Y-52288152D02*
X153198214Y-52383390D01*
X153198214Y-52383390D02*
X153150595Y-52431009D01*
X153150595Y-52431009D02*
X153055357Y-52478628D01*
X153055357Y-52478628D02*
X152674405Y-52478628D01*
X153579167Y-51954819D02*
X154198214Y-51954819D01*
X154198214Y-51954819D02*
X153864881Y-52335771D01*
X153864881Y-52335771D02*
X154007738Y-52335771D01*
X154007738Y-52335771D02*
X154102976Y-52383390D01*
X154102976Y-52383390D02*
X154150595Y-52431009D01*
X154150595Y-52431009D02*
X154198214Y-52526247D01*
X154198214Y-52526247D02*
X154198214Y-52764342D01*
X154198214Y-52764342D02*
X154150595Y-52859580D01*
X154150595Y-52859580D02*
X154102976Y-52907200D01*
X154102976Y-52907200D02*
X154007738Y-52954819D01*
X154007738Y-52954819D02*
X153722024Y-52954819D01*
X153722024Y-52954819D02*
X153626786Y-52907200D01*
X153626786Y-52907200D02*
X153579167Y-52859580D01*
X157761905Y-42079819D02*
X157761905Y-41079819D01*
X157761905Y-41079819D02*
X158000000Y-41079819D01*
X158000000Y-41079819D02*
X158142857Y-41127438D01*
X158142857Y-41127438D02*
X158238095Y-41222676D01*
X158238095Y-41222676D02*
X158285714Y-41317914D01*
X158285714Y-41317914D02*
X158333333Y-41508390D01*
X158333333Y-41508390D02*
X158333333Y-41651247D01*
X158333333Y-41651247D02*
X158285714Y-41841723D01*
X158285714Y-41841723D02*
X158238095Y-41936961D01*
X158238095Y-41936961D02*
X158142857Y-42032200D01*
X158142857Y-42032200D02*
X158000000Y-42079819D01*
X158000000Y-42079819D02*
X157761905Y-42079819D01*
X158666667Y-41079819D02*
X159285714Y-41079819D01*
X159285714Y-41079819D02*
X158952381Y-41460771D01*
X158952381Y-41460771D02*
X159095238Y-41460771D01*
X159095238Y-41460771D02*
X159190476Y-41508390D01*
X159190476Y-41508390D02*
X159238095Y-41556009D01*
X159238095Y-41556009D02*
X159285714Y-41651247D01*
X159285714Y-41651247D02*
X159285714Y-41889342D01*
X159285714Y-41889342D02*
X159238095Y-41984580D01*
X159238095Y-41984580D02*
X159190476Y-42032200D01*
X159190476Y-42032200D02*
X159095238Y-42079819D01*
X159095238Y-42079819D02*
X158809524Y-42079819D01*
X158809524Y-42079819D02*
X158714286Y-42032200D01*
X158714286Y-42032200D02*
X158666667Y-41984580D01*
X140261905Y-46954819D02*
X140261905Y-45954819D01*
X140261905Y-45954819D02*
X140500000Y-45954819D01*
X140500000Y-45954819D02*
X140642857Y-46002438D01*
X140642857Y-46002438D02*
X140738095Y-46097676D01*
X140738095Y-46097676D02*
X140785714Y-46192914D01*
X140785714Y-46192914D02*
X140833333Y-46383390D01*
X140833333Y-46383390D02*
X140833333Y-46526247D01*
X140833333Y-46526247D02*
X140785714Y-46716723D01*
X140785714Y-46716723D02*
X140738095Y-46811961D01*
X140738095Y-46811961D02*
X140642857Y-46907200D01*
X140642857Y-46907200D02*
X140500000Y-46954819D01*
X140500000Y-46954819D02*
X140261905Y-46954819D01*
X141785714Y-46954819D02*
X141214286Y-46954819D01*
X141500000Y-46954819D02*
X141500000Y-45954819D01*
X141500000Y-45954819D02*
X141404762Y-46097676D01*
X141404762Y-46097676D02*
X141309524Y-46192914D01*
X141309524Y-46192914D02*
X141214286Y-46240533D01*
X153333333Y-55954819D02*
X153000000Y-55478628D01*
X152761905Y-55954819D02*
X152761905Y-54954819D01*
X152761905Y-54954819D02*
X153142857Y-54954819D01*
X153142857Y-54954819D02*
X153238095Y-55002438D01*
X153238095Y-55002438D02*
X153285714Y-55050057D01*
X153285714Y-55050057D02*
X153333333Y-55145295D01*
X153333333Y-55145295D02*
X153333333Y-55288152D01*
X153333333Y-55288152D02*
X153285714Y-55383390D01*
X153285714Y-55383390D02*
X153238095Y-55431009D01*
X153238095Y-55431009D02*
X153142857Y-55478628D01*
X153142857Y-55478628D02*
X152761905Y-55478628D01*
X153714286Y-55050057D02*
X153761905Y-55002438D01*
X153761905Y-55002438D02*
X153857143Y-54954819D01*
X153857143Y-54954819D02*
X154095238Y-54954819D01*
X154095238Y-54954819D02*
X154190476Y-55002438D01*
X154190476Y-55002438D02*
X154238095Y-55050057D01*
X154238095Y-55050057D02*
X154285714Y-55145295D01*
X154285714Y-55145295D02*
X154285714Y-55240533D01*
X154285714Y-55240533D02*
X154238095Y-55383390D01*
X154238095Y-55383390D02*
X153666667Y-55954819D01*
X153666667Y-55954819D02*
X154285714Y-55954819D01*
X141166666Y-57454819D02*
X141166666Y-58169104D01*
X141166666Y-58169104D02*
X141119047Y-58311961D01*
X141119047Y-58311961D02*
X141023809Y-58407200D01*
X141023809Y-58407200D02*
X140880952Y-58454819D01*
X140880952Y-58454819D02*
X140785714Y-58454819D01*
X141547619Y-57454819D02*
X142166666Y-57454819D01*
X142166666Y-57454819D02*
X141833333Y-57835771D01*
X141833333Y-57835771D02*
X141976190Y-57835771D01*
X141976190Y-57835771D02*
X142071428Y-57883390D01*
X142071428Y-57883390D02*
X142119047Y-57931009D01*
X142119047Y-57931009D02*
X142166666Y-58026247D01*
X142166666Y-58026247D02*
X142166666Y-58264342D01*
X142166666Y-58264342D02*
X142119047Y-58359580D01*
X142119047Y-58359580D02*
X142071428Y-58407200D01*
X142071428Y-58407200D02*
X141976190Y-58454819D01*
X141976190Y-58454819D02*
X141690476Y-58454819D01*
X141690476Y-58454819D02*
X141595238Y-58407200D01*
X141595238Y-58407200D02*
X141547619Y-58359580D01*
X159761905Y-43579819D02*
X159761905Y-42579819D01*
X159761905Y-42579819D02*
X160000000Y-42579819D01*
X160000000Y-42579819D02*
X160142857Y-42627438D01*
X160142857Y-42627438D02*
X160238095Y-42722676D01*
X160238095Y-42722676D02*
X160285714Y-42817914D01*
X160285714Y-42817914D02*
X160333333Y-43008390D01*
X160333333Y-43008390D02*
X160333333Y-43151247D01*
X160333333Y-43151247D02*
X160285714Y-43341723D01*
X160285714Y-43341723D02*
X160238095Y-43436961D01*
X160238095Y-43436961D02*
X160142857Y-43532200D01*
X160142857Y-43532200D02*
X160000000Y-43579819D01*
X160000000Y-43579819D02*
X159761905Y-43579819D01*
X160714286Y-42675057D02*
X160761905Y-42627438D01*
X160761905Y-42627438D02*
X160857143Y-42579819D01*
X160857143Y-42579819D02*
X161095238Y-42579819D01*
X161095238Y-42579819D02*
X161190476Y-42627438D01*
X161190476Y-42627438D02*
X161238095Y-42675057D01*
X161238095Y-42675057D02*
X161285714Y-42770295D01*
X161285714Y-42770295D02*
X161285714Y-42865533D01*
X161285714Y-42865533D02*
X161238095Y-43008390D01*
X161238095Y-43008390D02*
X160666667Y-43579819D01*
X160666667Y-43579819D02*
X161285714Y-43579819D01*
X140833333Y-44954819D02*
X140500000Y-44478628D01*
X140261905Y-44954819D02*
X140261905Y-43954819D01*
X140261905Y-43954819D02*
X140642857Y-43954819D01*
X140642857Y-43954819D02*
X140738095Y-44002438D01*
X140738095Y-44002438D02*
X140785714Y-44050057D01*
X140785714Y-44050057D02*
X140833333Y-44145295D01*
X140833333Y-44145295D02*
X140833333Y-44288152D01*
X140833333Y-44288152D02*
X140785714Y-44383390D01*
X140785714Y-44383390D02*
X140738095Y-44431009D01*
X140738095Y-44431009D02*
X140642857Y-44478628D01*
X140642857Y-44478628D02*
X140261905Y-44478628D01*
X141785714Y-44954819D02*
X141214286Y-44954819D01*
X141500000Y-44954819D02*
X141500000Y-43954819D01*
X141500000Y-43954819D02*
X141404762Y-44097676D01*
X141404762Y-44097676D02*
X141309524Y-44192914D01*
X141309524Y-44192914D02*
X141214286Y-44240533D01*
D11*
%TO.C,R6*%
X145590000Y-58227064D02*
X145590000Y-56772936D01*
X147410000Y-58227064D02*
X147410000Y-56772936D01*
%TO.C,J2*%
X156950000Y-44170000D02*
X156950000Y-45500000D01*
X155620000Y-44170000D02*
X156950000Y-44170000D01*
X154350000Y-44170000D02*
X146670000Y-44170000D01*
X154350000Y-44170000D02*
X154350000Y-46830000D01*
X146670000Y-44170000D02*
X146670000Y-46830000D01*
X154350000Y-46830000D02*
X146670000Y-46830000D01*
%TO.C,J10*%
X142670000Y-42710000D02*
X142670000Y-42830000D01*
X142670000Y-42830000D02*
X145330000Y-42830000D01*
X144000000Y-40170000D02*
X145330000Y-40170000D01*
X145330000Y-40170000D02*
X145330000Y-41500000D01*
X145330000Y-42710000D02*
X145330000Y-42830000D01*
%TO.C,J1*%
X156950000Y-40170000D02*
X156950000Y-41500000D01*
X155620000Y-40170000D02*
X156950000Y-40170000D01*
X154350000Y-40170000D02*
X146670000Y-40170000D01*
X154350000Y-40170000D02*
X154350000Y-42830000D01*
X146670000Y-40170000D02*
X146670000Y-42830000D01*
X154350000Y-42830000D02*
X146670000Y-42830000D01*
%TO.C,C1*%
X149146267Y-54605000D02*
X148853733Y-54605000D01*
X149146267Y-53585000D02*
X148853733Y-53585000D01*
%TO.C,U1*%
X148500000Y-53060000D02*
X150450000Y-53060000D01*
X148500000Y-53060000D02*
X146550000Y-53060000D01*
X148500000Y-47940000D02*
X150450000Y-47940000D01*
X148500000Y-47940000D02*
X146550000Y-47940000D01*
X151440000Y-53295000D02*
X150960000Y-53295000D01*
X151200000Y-52965000D01*
X151440000Y-53295000D01*
G36*
X151440000Y-53295000D02*
G01*
X150960000Y-53295000D01*
X151200000Y-52965000D01*
X151440000Y-53295000D01*
G37*
%TO.C,R3*%
X153745276Y-50477500D02*
X154254724Y-50477500D01*
X153745276Y-51522500D02*
X154254724Y-51522500D01*
%TO.C,D3*%
X159235000Y-42340000D02*
X157765000Y-42340000D01*
X157765000Y-42340000D02*
X157765000Y-44800000D01*
X159235000Y-44800000D02*
X159235000Y-42340000D01*
%TO.C,D1*%
X142340000Y-45765000D02*
X142340000Y-47235000D01*
X142340000Y-47235000D02*
X144800000Y-47235000D01*
X144800000Y-45765000D02*
X142340000Y-45765000D01*
%TO.C,R2*%
X153745276Y-54522500D02*
X154254724Y-54522500D01*
X153745276Y-53477500D02*
X154254724Y-53477500D01*
%TO.C,J3*%
X142005000Y-56830000D02*
X139405000Y-56830000D01*
X139405000Y-54170000D02*
X139405000Y-56830000D01*
X142005000Y-54170000D02*
X142005000Y-56830000D01*
X142005000Y-54170000D02*
X139405000Y-54170000D01*
X143275000Y-54170000D02*
X144605000Y-54170000D01*
X144605000Y-54170000D02*
X144605000Y-55500000D01*
%TO.C,D2*%
X161235000Y-43840000D02*
X159765000Y-43840000D01*
X159765000Y-43840000D02*
X159765000Y-46300000D01*
X161235000Y-46300000D02*
X161235000Y-43840000D01*
%TO.C,R1*%
X144254724Y-45022500D02*
X143745276Y-45022500D01*
X144254724Y-43977500D02*
X143745276Y-43977500D01*
%TD*%
M02*
